<svg width="592" height="88" viewBox="0 0 592 88" fill="none" xmlns="http://www.w3.org/2000/svg">
    <path d="M1.99707 14.8091C4.95117 13.8325 7.72217 12.9292 10.3101 12.0991C12.9224 11.269 15.6689 10.4878 18.5498 9.75537C21.4307 8.99854 24.1895 8.40039 26.8262 7.96094C28.8525 7.61914 30.9277 7.44824 33.0518 7.44824C36.5918 7.44824 38.9111 7.5459 40.0098 7.74121C41.6699 8.05859 43.2324 8.57129 44.6973 9.2793C46.1865 9.9873 47.5049 10.9395 48.6523 12.1357C49.8242 13.3076 50.7764 14.6992 51.5088 16.3105C51.8018 16.9697 51.9482 17.6655 51.9482 18.3979C51.9482 21.1323 50.4468 24.5015 47.4438 28.5054C44.4653 32.5093 41.4624 36.0005 38.4351 38.979C35.4321 41.9575 33.186 44.0938 31.6968 45.3877L38.2886 68.4956L28.6938 75.417L11.8848 27.4067C11.8359 27.4067 11.604 27.6387 11.189 28.1025C10.7739 28.5664 10.2246 29.1768 9.54102 29.9336C8.88184 30.666 8.4668 31.1177 8.2959 31.2886C8.22266 31.2886 7.97852 30.7637 7.56348 29.7139C7.17285 28.6641 6.63574 27.2114 5.95215 25.356C5.29297 23.4761 4.54834 21.4009 3.71826 19.1304C2.86377 16.8354 2.29004 15.395 1.99707 14.8091ZM25.6909 24.9897L28.6938 35.793C30.2075 34.2549 32.0874 32.1553 34.3335 29.4941C36.5796 26.833 37.7026 24.9043 37.7026 23.708C37.7026 23.2441 37.5073 22.9756 37.1167 22.9023C36.0181 22.6582 34.9316 22.5361 33.8574 22.5361C30.6348 22.5361 27.9126 23.354 25.6909 24.9897ZM89.2007 33.3394C90.9341 34.2671 92.3379 35.5244 93.4121 37.1113C94.5107 38.6738 95.3042 40.4438 95.7925 42.4214C96.3052 44.3745 96.5615 46.4131 96.5615 48.5371C96.5615 50.2949 96.415 51.9917 96.1221 53.6274C95.8535 55.2632 95.4751 56.7646 94.9868 58.1318C94.4985 59.499 93.9248 60.6587 93.2656 61.6108C91.7275 63.9058 90.0796 65.8833 88.3218 67.5435C86.564 69.2036 84.7695 70.5464 82.9385 71.5718C81.1074 72.5728 79.2886 73.3052 77.4819 73.769C75.6997 74.2573 73.9297 74.5015 72.1719 74.5015C70.0967 74.5015 68.1191 74.1719 66.2393 73.5127C64.3838 72.8779 62.7969 72.0356 61.4785 70.9858C59.3057 69.1792 57.6089 66.75 56.3882 63.6982C55.1675 60.6221 54.5571 57.375 54.5571 53.957C54.5571 48.0732 56.2539 43.3247 59.6475 39.7114C62.5527 36.6108 65.5557 34.2793 68.6562 32.7168C71.7568 31.1299 74.9307 30.3364 78.1777 30.3364C80.082 30.3364 81.9131 30.5806 83.6709 31.0688C85.4287 31.5327 87.272 32.2896 89.2007 33.3394ZM87.04 39.4917C86.625 41.3472 85.7217 42.9829 84.3301 44.3989C82.9629 45.8149 81.6201 46.5229 80.3018 46.5229C79.6426 46.5229 79.0566 46.3521 78.5439 46.0103C77.8115 45.4243 77.4453 44.3989 77.4453 42.9341C77.4453 41.811 77.8115 40.7002 78.5439 39.6016C79.3008 38.5029 80.4849 37.6362 82.0962 37.0015C80.4849 37.0015 78.9224 37.3066 77.4087 37.917C75.9194 38.5273 74.6377 39.3208 73.5635 40.2974C72.4893 41.2495 71.6226 42.3359 70.9634 43.5566C70.3286 44.7529 70.0112 45.9614 70.0112 47.1821C70.0112 49.4526 71.061 51.2593 73.1606 52.6021C75.1138 53.8472 76.9692 54.4697 78.7271 54.4697C80.4604 54.4697 81.9985 53.896 83.3413 52.7485C84.6841 51.5767 85.7095 50.0874 86.4175 48.2808C87.1255 46.4497 87.4795 44.6431 87.4795 42.8608C87.4795 41.6401 87.333 40.5171 87.04 39.4917ZM100.232 11.8062L118.836 4.00586L121.546 46.3032L136.854 37.917L152.747 40.2974L132.02 56.1909L151.539 70.9126L152.417 85.5977L123.633 64.9067L124.549 82.8877L107.117 83.2173L103.821 19.6064L98.438 20.8149L100.232 11.8062ZM187.985 52.7485L196.811 63.4053C196.103 65.4561 194.418 67.3359 191.757 69.0449C189.121 70.7539 185.971 72.0967 182.309 73.0732C178.671 74.0742 175.034 74.5747 171.396 74.5747C168.173 74.5747 165.292 74.1475 162.753 73.293C160.239 72.4385 158.298 71.1445 156.931 69.4111C154.562 66.4326 153.378 62.624 153.378 57.9854C153.378 54.3232 154.038 50.7222 155.356 47.1821C156.699 43.6177 158.115 41.1274 159.604 39.7114C161.386 38.0269 163.315 36.623 165.39 35.5C167.49 34.377 169.663 33.5347 171.909 32.9731C174.155 32.4116 176.462 32.1309 178.83 32.1309C181.931 32.1309 184.873 32.6313 187.656 33.6323C190.463 34.6089 192.917 36.0371 195.017 37.917L174.912 61.9038C176.694 61.9038 178.378 61.5376 179.965 60.8052C181.577 60.0483 183.054 58.9863 184.396 57.6191C185.739 56.2275 186.936 54.604 187.985 52.7485ZM177.841 44.2158C176.645 43.6055 175.424 43.3003 174.179 43.3003C172.861 43.3003 171.579 43.5688 170.334 44.106C169.113 44.6431 168.247 45.2778 167.734 46.0103C166.22 47.9634 165.463 50.1118 165.463 52.4556C165.463 53.3101 165.549 54.1279 165.72 54.9092C165.891 55.6904 166.184 56.7646 166.599 58.1318L177.841 44.2158ZM199.969 16.3105C202.704 10.5 208.404 7.59473 217.071 7.59473C221.637 7.59473 226.446 8.2417 231.5 9.53564C236.554 10.8052 242.547 12.563 249.481 14.8091C248.944 16.0298 247.796 19.0815 246.039 23.9644C244.281 28.8472 243.329 31.2886 243.182 31.2886C242.987 31.0933 241.864 30.4585 239.813 29.3843C237.787 28.2856 235.565 27.2236 233.148 26.1982C230.755 25.1729 228.802 24.5747 227.289 24.4038C226.605 24.3306 225.006 23.9521 222.491 23.2686C220.001 22.585 218.146 22.2432 216.925 22.2432C215.802 22.2432 214.947 22.4629 214.361 22.9023C213.36 23.6104 212.86 24.4404 212.86 25.3926C212.86 26.2715 213.275 27.2358 214.105 28.2856C214.935 29.311 216.021 30.3364 217.364 31.3618C218.707 32.3872 220.196 33.3882 221.832 34.3647C223.468 35.3413 225.079 36.2202 226.666 37.0015C229.938 38.6128 232.77 40.4561 235.162 42.5312C237.579 44.582 239.459 46.6328 240.802 48.6836C242.145 50.7344 243.121 52.8218 243.731 54.9458C244.366 57.0454 244.684 59.0352 244.684 60.915C244.684 63.1367 244.281 65.1631 243.475 66.9941C241.986 70.1436 239.801 72.4263 236.92 73.8423C234.039 75.2827 230.597 76.0029 226.593 76.0029C224.298 76.0029 221.71 75.7588 218.829 75.2705C215.973 74.8066 213.202 74.2085 210.516 73.4761C207.855 72.7681 205.035 71.9502 202.057 71.0225C199.103 70.0703 196.502 69.228 194.256 68.4956C194.623 67.7388 195.221 66.2495 196.051 64.0278C196.856 61.7817 197.552 59.8408 198.138 58.2051C198.7 56.5693 199.225 55.1289 199.713 53.8838C200.177 52.6387 200.458 52.0161 200.555 52.0161C201.239 52.5776 203.534 53.8105 207.44 55.7148C211.346 57.5947 214.361 58.6567 216.485 58.9009C217.267 58.9741 218.597 59.2671 220.477 59.7798C222.357 60.2925 223.639 60.6343 224.322 60.8052C225.03 60.9761 225.86 61.0615 226.812 61.0615C227.936 61.0615 228.79 60.8418 229.376 60.4023C230.475 59.5967 231.024 58.7422 231.024 57.8389C231.024 55.8369 228.473 53.4932 223.37 50.8076C220.245 49.1719 216.766 46.8892 212.933 43.9595C209.125 41.0054 205.78 37.5996 202.899 33.7422C200.042 29.8604 198.614 25.9907 198.614 22.1333C198.614 20.1558 199.066 18.2148 199.969 16.3105ZM286.221 52.7485L295.046 63.4053C294.338 65.4561 292.654 67.3359 289.993 69.0449C287.356 70.7539 284.207 72.0967 280.544 73.0732C276.907 74.0742 273.269 74.5747 269.631 74.5747C266.409 74.5747 263.528 74.1475 260.989 73.293C258.474 72.4385 256.533 71.1445 255.166 69.4111C252.798 66.4326 251.614 62.624 251.614 57.9854C251.614 54.3232 252.273 50.7222 253.591 47.1821C254.934 43.6177 256.35 41.1274 257.839 39.7114C259.622 38.0269 261.55 36.623 263.625 35.5C265.725 34.377 267.898 33.5347 270.144 32.9731C272.39 32.4116 274.697 32.1309 277.065 32.1309C280.166 32.1309 283.108 32.6313 285.891 33.6323C288.699 34.6089 291.152 36.0371 293.252 37.917L273.147 61.9038C274.929 61.9038 276.614 61.5376 278.201 60.8052C279.812 60.0483 281.289 58.9863 282.632 57.6191C283.975 56.2275 285.171 54.604 286.221 52.7485ZM276.077 44.2158C274.88 43.6055 273.66 43.3003 272.415 43.3003C271.096 43.3003 269.814 43.5688 268.569 44.106C267.349 44.6431 266.482 45.2778 265.969 46.0103C264.456 47.9634 263.699 50.1118 263.699 52.4556C263.699 53.3101 263.784 54.1279 263.955 54.9092C264.126 55.6904 264.419 56.7646 264.834 58.1318L276.077 44.2158ZM324.022 37.1479C322.68 37.3188 321.349 37.7461 320.031 38.4297C318.737 39.1133 317.626 39.9189 316.698 40.8467C315.771 41.7744 315.038 42.7998 314.501 43.9229C313.988 45.0215 313.732 46.1079 313.732 47.1821C313.732 49.4038 314.782 51.2104 316.881 52.6021C318.737 53.8472 320.617 54.4697 322.521 54.4697C322.887 54.4697 323.388 54.4209 324.022 54.3232V46.5229C323.363 46.5229 322.777 46.3521 322.265 46.0103C321.532 45.4243 321.166 44.3013 321.166 42.6411C321.166 40.2485 322.118 38.4175 324.022 37.1479ZM324.315 30.7026L339.623 23.8179L339.916 44.2891C340.111 45.5586 340.209 46.999 340.209 48.6104C340.209 50.0264 340.16 51.0762 340.062 51.7598L340.502 74.2085L324.022 75.0874V72.8535C321.337 73.9521 318.627 74.5015 315.893 74.5015C313.793 74.5015 311.815 74.1841 309.96 73.5493C308.129 72.9146 306.542 72.0601 305.199 70.9858C303.026 69.1792 301.33 66.75 300.109 63.6982C298.888 60.6221 298.278 57.375 298.278 53.957C298.278 48.0732 299.975 43.3247 303.368 39.7114C306.298 36.6353 309.313 34.3037 312.414 32.7168C315.539 31.1299 318.725 30.3364 321.972 30.3364C322.875 30.3364 323.559 30.3608 324.022 30.4097L324.315 30.7026ZM390.169 37.2944L377.242 45.7173C376.607 44.0815 375.752 42.6899 374.678 41.5425C373.628 40.3706 372.542 39.7847 371.419 39.7847C369.808 39.7847 368.453 41.0542 367.354 43.5933C366.304 46.0347 365.779 50.3071 365.779 56.4106C365.779 60.6831 365.999 65.7124 366.438 71.4985L348.458 73.5859C347.408 66.042 346.883 59.3159 346.883 53.4077C346.883 52.4312 346.932 51.0884 347.029 49.3794L346.37 27.9927L360.762 26.1982L362.85 28.6152C364.559 28.0293 366.133 27.5288 367.574 27.1138C369.039 26.6987 370.406 26.3691 371.675 26.125C372.945 25.8809 374.178 25.7588 375.374 25.7588C377.791 25.7588 379.915 26.3081 381.746 27.4067C384.065 28.7007 385.896 30.0435 387.239 31.4351C388.606 32.8267 389.583 34.7798 390.169 37.2944ZM429.655 29.4941C431.218 30.4951 432.622 31.8867 433.867 33.6689C435.136 35.4268 436.113 37.0625 436.796 38.5762C437.48 40.0654 437.932 41.1396 438.151 41.7988L424.565 44.8018C424.345 43.5811 423.698 42.7754 422.624 42.3848C421.55 41.9941 420.427 41.7988 419.255 41.7988C413.054 42.3848 409.953 46.0835 409.953 52.895C410.124 58.2905 411.821 61.2935 415.043 61.9038C416.582 61.9038 417.973 61.5254 419.218 60.7686C420.463 60.0117 421.525 59.0107 422.404 57.7656C423.308 56.4961 424.052 55.0801 424.638 53.5176L438.225 56.2642C438.078 56.7524 437.724 57.729 437.163 59.1938C436.528 60.8296 435.039 63.0146 432.695 65.749C430.375 68.4834 427.788 70.3999 424.931 71.4985C421.489 72.8413 418.071 73.5127 414.677 73.5127C409.257 73.5127 404.448 71.7427 400.249 68.2026C398.344 66.5425 396.965 64.6138 396.11 62.4165C395.231 60.2192 394.792 57.8999 394.792 55.4585C394.792 52.9194 395.146 50.417 395.854 47.9512C396.562 45.4854 397.429 43.2393 398.454 41.2129C399.797 38.5762 401.274 36.3301 402.885 34.4746C404.497 32.5947 406.181 31.0688 407.939 29.897C409.721 28.7007 411.54 27.8218 413.396 27.2603C415.251 26.6987 417.119 26.418 418.999 26.418C422.856 26.418 426.408 27.4434 429.655 29.4941ZM461.708 30.7026C466.078 29.2622 469.85 28.542 473.023 28.542C475.929 28.542 478.456 29.1646 480.604 30.4097C481.898 31.1665 483.351 32.314 484.962 33.8521C486.573 35.3657 487.989 37.0381 489.21 38.8691C490.455 40.7002 491.285 42.4824 491.7 44.2158C492.994 49.416 493.641 53.957 493.641 57.8389C493.641 59.8896 493.507 62.0503 493.238 64.3208C492.97 66.5669 492.555 69.46 491.993 73L476.686 73.9155C476.734 72.6948 476.759 70.937 476.759 68.6421C476.759 59.0718 475.44 50.9297 472.804 44.2158C471.778 41.7012 470.777 40.4438 469.801 40.4438C468.531 40.4438 467.127 42.2017 465.589 45.7173C465.223 46.5718 464.918 47.5483 464.674 48.647C464.454 49.7456 464.283 50.9785 464.161 52.3457C464.063 53.7129 464.015 55.3242 464.015 57.1797C464.015 60.9395 464.234 65.7124 464.674 71.4985L446.693 73.5859C446.498 72.1699 446.375 70.5098 446.327 68.6055C446.253 66.7012 446.205 64.7358 446.18 62.7095C446.131 60.6831 446.046 58.8398 445.924 57.1797C445.826 55.4951 445.606 53.5908 445.265 51.4668L444.276 3.71289L459.291 1.88184L461.708 30.7026ZM533.75 52.7485L542.576 63.4053C541.868 65.4561 540.183 67.3359 537.522 69.0449C534.885 70.7539 531.736 72.0967 528.074 73.0732C524.436 74.0742 520.798 74.5747 517.161 74.5747C513.938 74.5747 511.057 74.1475 508.518 73.293C506.003 72.4385 504.062 71.1445 502.695 69.4111C500.327 66.4326 499.143 62.624 499.143 57.9854C499.143 54.3232 499.802 50.7222 501.121 47.1821C502.463 43.6177 503.879 41.1274 505.369 39.7114C507.151 38.0269 509.08 36.623 511.155 35.5C513.254 34.377 515.427 33.5347 517.673 32.9731C519.919 32.4116 522.227 32.1309 524.595 32.1309C527.695 32.1309 530.637 32.6313 533.42 33.6323C536.228 34.6089 538.682 36.0371 540.781 37.917L520.676 61.9038C522.458 61.9038 524.143 61.5376 525.73 60.8052C527.341 60.0483 528.818 58.9863 530.161 57.6191C531.504 56.2275 532.7 54.604 533.75 52.7485ZM523.606 44.2158C522.41 43.6055 521.189 43.3003 519.944 43.3003C518.625 43.3003 517.344 43.5688 516.099 44.106C514.878 44.6431 514.011 45.2778 513.499 46.0103C511.985 47.9634 511.228 50.1118 511.228 52.4556C511.228 53.3101 511.313 54.1279 511.484 54.9092C511.655 55.6904 511.948 56.7646 512.363 58.1318L523.606 44.2158ZM590.448 37.2944L577.521 45.7173C576.886 44.0815 576.032 42.6899 574.958 41.5425C573.908 40.3706 572.821 39.7847 571.698 39.7847C570.087 39.7847 568.732 41.0542 567.633 43.5933C566.583 46.0347 566.059 50.3071 566.059 56.4106C566.059 60.6831 566.278 65.7124 566.718 71.4985L548.737 73.5859C547.687 66.042 547.162 59.3159 547.162 53.4077C547.162 52.4312 547.211 51.0884 547.309 49.3794L546.649 27.9927L561.042 26.1982L563.129 28.6152C564.838 28.0293 566.413 27.5288 567.853 27.1138C569.318 26.6987 570.685 26.3691 571.955 26.125C573.224 25.8809 574.457 25.7588 575.653 25.7588C578.07 25.7588 580.194 26.3081 582.025 27.4067C584.345 28.7007 586.176 30.0435 587.519 31.4351C588.886 32.8267 589.862 34.7798 590.448 37.2944Z" fill="#F7CE0F"/>
    <path d="M1.99707 14.8091L1.6832 13.8596L0.585707 14.2224L1.10264 15.2563L1.99707 14.8091ZM10.3101 12.0991L10.0072 11.1461L10.0046 11.1469L10.3101 12.0991ZM18.5498 9.75537L18.7962 10.7246L18.8039 10.7226L18.5498 9.75537ZM26.8262 7.96094L26.9906 8.94733L26.9925 8.94701L26.8262 7.96094ZM40.0098 7.74121L40.1976 6.75892L40.1848 6.75665L40.0098 7.74121ZM44.6973 9.2793L44.2621 10.1797L44.2679 10.1824L44.6973 9.2793ZM48.6523 12.1357L47.9307 12.828L47.9379 12.8355L47.9452 12.8428L48.6523 12.1357ZM51.5088 16.3105L52.4226 15.9044L52.4192 15.8967L51.5088 16.3105ZM47.4438 28.5054L46.6438 27.9054L46.6415 27.9085L47.4438 28.5054ZM38.4351 38.979L37.7337 38.2662L37.7308 38.269L38.4351 38.979ZM31.6968 45.3877L31.0409 44.6328L30.5606 45.0501L30.7351 45.662L31.6968 45.3877ZM38.2886 68.4956L38.8736 69.3066L39.4427 68.8961L39.2502 68.2213L38.2886 68.4956ZM28.6938 75.417L27.75 75.7474L28.1926 77.0116L29.2789 76.228L28.6938 75.417ZM11.8848 27.4067L12.8286 27.0763L12.5942 26.4067H11.8848V27.4067ZM9.54102 29.9336L8.79891 29.2633L8.79772 29.2646L9.54102 29.9336ZM8.2959 31.2886V32.2886H8.71011L9.00301 31.9957L8.2959 31.2886ZM7.56348 29.7139L6.62625 30.0626L6.62979 30.0721L6.63352 30.0815L7.56348 29.7139ZM5.95215 25.356L5.00848 25.6869L5.01109 25.6943L5.01381 25.7017L5.95215 25.356ZM3.71826 19.1304L4.65748 18.787L4.65541 18.7814L3.71826 19.1304ZM25.6909 24.9897L25.098 24.1845L24.5428 24.5933L24.7274 25.2576L25.6909 24.9897ZM28.6938 35.793L27.7304 36.0608L28.1935 37.727L29.4066 36.4944L28.6938 35.793ZM37.1167 22.9023L36.8998 23.8785L36.916 23.8821L36.9324 23.8852L37.1167 22.9023ZM2.31094 15.7585C5.26263 14.7828 8.03078 13.8804 10.6155 13.0513L10.0046 11.1469C7.41355 11.978 4.63972 12.8823 1.6832 13.8596L2.31094 15.7585ZM10.6129 13.0522C13.2051 12.2285 15.9327 11.4525 18.7962 10.7245L18.3034 8.7862C15.4051 9.52305 12.6397 10.3096 10.0072 11.1461L10.6129 13.0522ZM18.8039 10.7226C21.6585 9.97262 24.3872 9.38123 26.9906 8.94733L26.6618 6.97454C23.9917 7.41956 21.2029 8.02445 18.2957 8.78819L18.8039 10.7226ZM26.9925 8.94701C28.9621 8.61479 30.9816 8.44824 33.0518 8.44824V6.44824C30.8739 6.44824 28.743 6.62349 26.6598 6.97487L26.9925 8.94701ZM33.0518 8.44824C36.6105 8.44824 38.8386 8.54868 39.8347 8.72577L40.1848 6.75665C38.9837 6.54311 36.5731 6.44824 33.0518 6.44824V8.44824ZM39.822 8.72342C41.3998 9.02506 42.8788 9.51105 44.2621 10.1796L45.1324 8.37895C43.586 7.63153 41.94 7.09212 40.1975 6.759L39.822 8.72342ZM44.2679 10.1824C45.6472 10.8381 46.8666 11.7186 47.9307 12.828L49.374 11.4435C48.1432 10.1603 46.7259 9.13646 45.1266 8.37616L44.2679 10.1824ZM47.9452 12.8428C49.0267 13.9243 49.9122 15.2147 50.5984 16.7243L52.4192 15.8967C51.6405 14.1837 50.6217 12.6909 49.3595 11.4286L47.9452 12.8428ZM50.595 16.7167C50.8302 17.246 50.9482 17.8032 50.9482 18.3979H52.9482C52.9482 17.5278 52.7733 16.6935 52.4226 15.9044L50.595 16.7167ZM50.9482 18.3979C50.9482 20.7992 49.611 23.9491 46.6438 27.9054L48.2438 29.1054C51.2825 25.0538 52.9482 21.4655 52.9482 18.3979H50.9482ZM46.6415 27.9085C43.6885 31.8781 40.7188 35.3292 37.7337 38.2662L39.1364 39.6918C42.206 36.6717 45.2422 33.1404 48.2462 29.1022L46.6415 27.9085ZM37.7308 38.269C34.7301 41.2454 32.5037 43.3619 31.0409 44.6328L32.3526 46.1426C33.8684 44.8256 36.1342 42.6697 39.1393 39.689L37.7308 38.269ZM30.7351 45.662L37.3269 68.7699L39.2502 68.2213L32.6584 45.1134L30.7351 45.662ZM37.7035 67.6846L28.1088 74.606L29.2789 76.228L38.8736 69.3066L37.7035 67.6846ZM29.6377 75.0865L12.8286 27.0763L10.9409 27.7372L27.75 75.7474L29.6377 75.0865ZM11.8848 26.4067C11.7003 26.4067 11.5607 26.4573 11.4987 26.4823C11.4262 26.5116 11.3699 26.5438 11.3353 26.565C11.2664 26.6072 11.2109 26.6512 11.1769 26.6793C11.1054 26.7383 11.0328 26.8079 10.9671 26.8736C10.8312 27.0095 10.6547 27.1999 10.4437 27.4357L11.9342 28.7693C12.1382 28.5413 12.2853 28.3838 12.3813 28.2878C12.4316 28.2375 12.452 28.2201 12.4507 28.2212C12.4489 28.2226 12.4428 28.2276 12.433 28.2349C12.4238 28.2418 12.4057 28.2547 12.3804 28.2702C12.3576 28.2842 12.3117 28.3109 12.2483 28.3366C12.2154 28.3499 12.1697 28.3662 12.1135 28.3797C12.0583 28.393 11.9798 28.4067 11.8848 28.4067V26.4067ZM10.4437 27.4357C10.0302 27.8979 9.48203 28.507 8.79891 29.2633L10.2831 30.6039C10.9672 29.8465 11.5177 29.2349 11.9342 28.7693L10.4437 27.4357ZM8.79772 29.2646C8.13174 30.0046 7.73682 30.4334 7.58879 30.5815L9.00301 31.9957C9.19677 31.8019 9.63193 31.3274 10.2843 30.6026L8.79772 29.2646ZM8.2959 30.2886C8.5812 30.2886 8.77711 30.4101 8.85006 30.4607C8.93487 30.5195 8.98833 30.5775 9.00975 30.6018C9.05384 30.6517 9.07283 30.6862 9.06466 30.6727C9.05345 30.6542 9.0212 30.5949 8.96458 30.4732C8.85526 30.2381 8.69914 29.8665 8.49344 29.3462L6.63352 30.0815C6.84285 30.611 7.01632 31.0268 7.15114 31.3166C7.21659 31.4573 7.28505 31.5949 7.35319 31.7076C7.38469 31.7597 7.43801 31.8435 7.51109 31.9262C7.54701 31.9668 7.61363 32.0371 7.71026 32.1041C7.79504 32.1629 8.00144 32.2886 8.2959 32.2886V30.2886ZM8.5007 29.3651C8.11063 28.3168 7.57395 26.8653 6.89049 25.0103L5.01381 25.7017C5.69754 27.5575 6.23508 29.0113 6.62625 30.0626L8.5007 29.3651ZM6.89582 25.0251C6.23491 23.1402 5.48875 21.0608 4.65746 18.787L2.77906 19.4737C3.60793 21.7409 4.35103 23.8119 5.00848 25.6869L6.89582 25.0251ZM4.65541 18.7814C3.80705 16.503 3.21361 15.0061 2.8915 14.3619L1.10264 15.2563C1.36647 15.7839 1.92048 17.1679 2.78112 19.4793L4.65541 18.7814ZM24.7274 25.2576L27.7304 36.0608L29.6573 35.5252L26.6544 24.7219L24.7274 25.2576ZM29.4066 36.4944C30.9455 34.9306 32.8438 32.8095 35.0977 30.1391L33.5693 28.8491C31.331 31.501 29.4695 33.5791 27.9811 35.0915L29.4066 36.4944ZM35.0977 30.1391C36.2399 28.7859 37.1224 27.589 37.7245 26.5549C38.31 25.5494 38.7026 24.5783 38.7026 23.708H36.7026C36.7026 24.0341 36.5337 24.6254 35.9962 25.5486C35.4752 26.4432 34.6732 27.5412 33.5693 28.8491L35.0977 30.1391ZM38.7026 23.708C38.7026 23.3464 38.6275 22.9316 38.3649 22.5705C38.0884 22.1903 37.6948 21.9933 37.301 21.9195L36.9324 23.8852C36.9364 23.886 36.9102 23.8816 36.8692 23.8577C36.8254 23.8322 36.7818 23.7941 36.7474 23.7469C36.6801 23.6543 36.7026 23.6058 36.7026 23.708H38.7026ZM37.3336 21.9262C36.1672 21.6669 35.008 21.5361 33.8574 21.5361V23.5361C34.8553 23.5361 35.869 23.6495 36.8998 23.8785L37.3336 21.9262ZM33.8574 21.5361C30.4585 21.5361 27.5192 22.4019 25.098 24.1845L26.2838 25.795C28.306 24.3061 30.811 23.5361 33.8574 23.5361V21.5361ZM89.2007 33.3394L88.7226 34.2177L88.7288 34.221L89.2007 33.3394ZM93.4121 37.1113L92.584 37.6719L92.589 37.6792L92.5941 37.6865L93.4121 37.1113ZM95.7925 42.4214L94.8216 42.6611L94.8234 42.6682L94.8252 42.6753L95.7925 42.4214ZM96.1221 53.6274L95.1377 53.4511L95.1365 53.4583L95.1353 53.4654L96.1221 53.6274ZM93.2656 61.6108L92.4434 61.0416L92.4391 61.0478L92.4349 61.0541L93.2656 61.6108ZM82.9385 71.5718L83.4182 72.4493L83.4271 72.4443L82.9385 71.5718ZM77.4819 73.769L77.2332 72.8005L77.2255 72.8025L77.2177 72.8046L77.4819 73.769ZM66.2393 73.5127L66.5702 72.569L66.5629 72.5665L66.2393 73.5127ZM61.4785 70.9858L60.8392 71.7548L60.8473 71.7615L60.8556 71.7681L61.4785 70.9858ZM56.3882 63.6982L55.4587 64.0671L55.4597 64.0696L56.3882 63.6982ZM59.6475 39.7114L60.3764 40.396L60.3772 40.3952L59.6475 39.7114ZM68.6562 32.7168L69.1063 33.6098L69.1119 33.607L68.6562 32.7168ZM83.6709 31.0688L83.4032 32.0324L83.4157 32.0357L83.6709 31.0688ZM87.04 39.4917L88.0016 39.217L86.0642 39.2734L87.04 39.4917ZM84.3301 44.3989L83.6168 43.698L83.6107 43.7043L84.3301 44.3989ZM78.5439 46.0103L77.9193 46.7911L77.9531 46.8182L77.9892 46.8423L78.5439 46.0103ZM78.5439 39.6016L77.7204 39.0343L77.7161 39.0405L77.7119 39.0469L78.5439 39.6016ZM82.0962 37.0015L82.4627 37.9319L82.0962 36.0015V37.0015ZM77.4087 37.917L77.0347 36.9895L77.0295 36.9917L77.4087 37.917ZM73.5635 40.2974L74.2268 41.0458L74.2361 41.0373L73.5635 40.2974ZM70.9634 43.5566L70.0835 43.0815L70.08 43.0879L70.9634 43.5566ZM73.1606 52.6021L72.6219 53.4445L72.6231 53.4453L73.1606 52.6021ZM83.3413 52.7485L83.991 53.5088L83.9988 53.502L83.3413 52.7485ZM86.4175 48.2808L87.3485 48.6456L87.3502 48.6414L86.4175 48.2808ZM88.7288 34.221C90.323 35.0743 91.6031 36.2229 92.584 37.6719L94.2402 36.5508C93.0726 34.8259 91.5451 33.4599 89.6726 32.4577L88.7288 34.221ZM92.5941 37.6865C93.6168 39.141 94.3611 40.7958 94.8216 42.6611L96.7633 42.1817C96.2473 40.0919 95.4047 38.2066 94.2301 36.5362L92.5941 37.6865ZM94.8252 42.6753C95.3151 44.5413 95.5615 46.4943 95.5615 48.5371H97.5615C97.5615 46.3318 97.2953 44.2077 96.7597 42.1675L94.8252 42.6753ZM95.5615 48.5371C95.5615 50.2392 95.4197 51.8768 95.1377 53.4511L97.1064 53.8037C97.4104 52.1066 97.5615 50.3506 97.5615 48.5371H95.5615ZM95.1353 53.4654C94.8751 55.05 94.5105 56.4922 94.0451 57.7955L95.9286 58.4682C96.4397 57.0371 96.8319 55.4764 97.1089 53.7895L95.1353 53.4654ZM94.0451 57.7955C93.5792 59.1 93.042 60.177 92.4434 61.0416L94.0878 62.18C94.8076 61.1403 95.4179 59.898 95.9286 58.4682L94.0451 57.7955ZM92.4349 61.0541C90.9326 63.2957 89.3317 65.2141 87.6352 66.8164L89.0084 68.2705C90.8275 66.5525 92.5225 64.5159 94.0963 62.1676L92.4349 61.0541ZM87.6352 66.8164C85.9283 68.4285 84.1993 69.7196 82.4499 70.6993L83.4271 72.4443C85.3398 71.3732 87.1997 69.9787 89.0084 68.2705L87.6352 66.8164ZM82.4588 70.6943C80.6922 71.6601 78.9505 72.3595 77.2332 72.8005L77.7306 74.7376C79.6266 74.2508 81.5227 73.4854 83.4181 72.4492L82.4588 70.6943ZM77.2177 72.8046C75.5172 73.2705 73.836 73.5015 72.1719 73.5015V75.5015C74.0234 75.5015 75.8823 75.2442 77.7462 74.7335L77.2177 72.8046ZM72.1719 73.5015C70.2046 73.5015 68.3393 73.1894 66.5702 72.569L65.9084 74.4564C67.899 75.1544 69.9887 75.5015 72.1719 75.5015V73.5015ZM66.5629 72.5665C64.7985 71.9629 63.3168 71.1714 62.1014 70.2036L60.8556 71.7681C62.2769 72.8999 63.9691 73.793 65.9156 74.4589L66.5629 72.5665ZM62.1178 70.2169C60.0924 68.5328 58.4857 66.2494 57.3167 63.3269L55.4597 64.0696C56.7321 67.2506 58.5189 69.8256 60.8392 71.7548L62.1178 70.2169ZM57.3177 63.3294C56.1451 60.3745 55.5571 57.2529 55.5571 53.957H53.5571C53.5571 57.4971 54.1899 60.8697 55.4587 64.0671L57.3177 63.3294ZM55.5571 53.957C55.5571 48.277 57.1888 43.79 60.3764 40.396L58.9185 39.0268C55.319 42.8594 53.5571 47.8695 53.5571 53.957H55.5571ZM60.3772 40.3952C63.2196 37.3617 66.131 35.1092 69.1063 33.6098L68.2062 31.8238C64.9804 33.4494 61.8859 35.86 58.9177 39.0277L60.3772 40.3952ZM69.1119 33.607C72.0819 32.0869 75.1005 31.3364 78.1777 31.3364V29.3364C74.7609 29.3364 71.4318 30.1729 68.2006 31.8266L69.1119 33.607ZM78.1777 31.3364C79.9956 31.3364 81.7363 31.5693 83.4033 32.0324L83.9385 30.1053C82.0898 29.5918 80.1685 29.3364 78.1777 29.3364V31.3364ZM83.4157 32.0357C85.0819 32.4754 86.8503 33.1986 88.7226 34.2177L89.6788 32.461C87.6936 31.3805 85.7755 30.59 83.9261 30.1019L83.4157 32.0357ZM86.0642 39.2734C85.6917 40.9384 84.8836 42.409 83.6168 43.698L85.0433 45.0999C86.5597 43.5568 87.5583 41.756 88.0159 39.71L86.0642 39.2734ZM83.6107 43.7043C82.3395 45.021 81.2396 45.5229 80.3018 45.5229V47.5229C82.0006 47.5229 83.5863 46.6089 85.0495 45.0935L83.6107 43.7043ZM80.3018 45.5229C79.8255 45.5229 79.4354 45.4027 79.0986 45.1782L77.9892 46.8423C78.6778 47.3014 79.4596 47.5229 80.3018 47.5229V45.5229ZM79.1686 45.2294C78.7813 44.9195 78.4453 44.2671 78.4453 42.9341H76.4453C76.4453 44.5307 76.8418 45.9291 77.9193 46.7911L79.1686 45.2294ZM78.4453 42.9341C78.4453 42.0411 78.7334 41.1201 79.376 40.1563L77.7119 39.0469C76.8896 40.2803 76.4453 41.5809 76.4453 42.9341H78.4453ZM79.3675 40.1689C79.9822 39.2765 80.9818 38.5153 82.4627 37.9319L81.7297 36.0711C79.9879 36.7572 78.6194 37.7294 77.7204 39.0343L79.3675 40.1689ZM82.0962 36.0015C80.355 36.0015 78.6657 36.3319 77.0347 36.9896L77.7827 38.8444C79.179 38.2814 80.6147 38.0015 82.0962 38.0015V36.0015ZM77.0295 36.9917C75.444 37.6415 74.0601 38.4944 72.8908 39.5574L74.2361 41.0373C75.2152 40.1472 76.3949 39.4132 77.7879 38.8423L77.0295 36.9917ZM72.9002 39.549C71.7414 40.5761 70.8002 41.7542 70.0835 43.0815L71.8433 44.0318C72.4449 42.9177 73.2371 41.9229 74.2268 41.0457L72.9002 39.549ZM70.08 43.0879C69.3772 44.4125 69.0112 45.7807 69.0112 47.1821H71.0112C71.0112 46.1421 71.28 45.0934 71.8467 44.0254L70.08 43.0879ZM69.0112 47.1821C69.0112 49.8316 70.2683 51.9393 72.6219 53.4445L73.6994 51.7596C71.8538 50.5792 71.0112 49.0737 71.0112 47.1821H69.0112ZM72.6231 53.4453C74.6868 54.7609 76.7271 55.4697 78.7271 55.4697V53.4697C77.2114 53.4697 75.5407 52.9334 73.6982 51.7588L72.6231 53.4453ZM78.7271 55.4697C80.7035 55.4697 82.4709 54.8078 83.991 53.5088L82.6917 51.9883C81.5262 52.9842 80.2174 53.4697 78.7271 53.4697V55.4697ZM83.9988 53.502C85.4732 52.2152 86.5872 50.5883 87.3485 48.6456L85.4864 47.9159C84.8317 49.5865 83.895 50.9381 82.6838 51.9951L83.9988 53.502ZM87.3502 48.6414C88.0982 46.707 88.4795 44.7783 88.4795 42.8608H86.4795C86.4795 44.5078 86.1528 46.1924 85.4848 47.9201L87.3502 48.6414ZM88.4795 42.8608C88.4795 41.5604 88.3234 40.3435 88.0016 39.217L86.0785 39.7664C86.3426 40.6907 86.4795 41.7199 86.4795 42.8608H88.4795ZM100.232 11.8062L99.8457 10.8839L99.3555 11.0895L99.2517 11.6108L100.232 11.8062ZM118.836 4.00586L119.834 3.94192L119.744 2.54072L118.449 3.08364L118.836 4.00586ZM121.546 46.3032L120.548 46.3672L120.648 47.9351L122.026 47.1802L121.546 46.3032ZM136.854 37.917L137.002 36.928L136.668 36.8781L136.373 37.04L136.854 37.917ZM152.747 40.2974L153.356 41.0909L155.225 39.6574L152.895 39.3084L152.747 40.2974ZM132.02 56.1909L131.411 55.3974L130.368 56.1975L131.417 56.9893L132.02 56.1909ZM151.539 70.9126L152.537 70.8529L152.509 70.3921L152.141 70.1142L151.539 70.9126ZM152.417 85.5977L151.834 86.4096L153.541 87.6371L153.416 85.5379L152.417 85.5977ZM123.633 64.9067L124.217 64.0948L122.529 62.8813L122.635 64.9576L123.633 64.9067ZM124.549 82.8877L124.568 83.8875L125.6 83.868L125.548 82.8368L124.549 82.8877ZM107.117 83.2173L106.119 83.269L106.169 84.2354L107.136 84.2171L107.117 83.2173ZM103.821 19.6064L104.82 19.5547L104.759 18.3711L103.602 18.6307L103.821 19.6064ZM98.438 20.8149L97.4573 20.6196L97.1569 22.1274L98.657 21.7907L98.438 20.8149ZM100.619 12.7284L119.223 4.92807L118.449 3.08364L99.8457 10.8839L100.619 12.7284ZM117.838 4.0698L120.548 46.3672L122.544 46.2393L119.834 3.94192L117.838 4.0698ZM122.026 47.1802L137.334 38.794L136.373 37.04L121.065 45.4262L122.026 47.1802ZM136.705 38.906L152.599 41.2863L152.895 39.3084L137.002 36.928L136.705 38.906ZM152.139 39.5038L131.411 55.3974L132.628 56.9845L153.356 41.0909L152.139 39.5038ZM131.417 56.9893L150.936 71.711L152.141 70.1142L132.622 55.3925L131.417 56.9893ZM150.54 70.9723L151.419 85.6574L153.416 85.5379L152.537 70.8529L150.54 70.9723ZM153.001 84.7857L124.217 64.0948L123.05 65.7187L151.834 86.4096L153.001 84.7857ZM122.635 64.9576L123.55 82.9385L125.548 82.8368L124.632 64.8559L122.635 64.9576ZM124.53 81.8879L107.098 82.2175L107.136 84.2171L124.568 83.8875L124.53 81.8879ZM108.116 83.1655L104.82 19.5547L102.823 19.6582L106.119 83.269L108.116 83.1655ZM103.602 18.6307L98.2189 19.8392L98.657 21.7907L104.04 20.5822L103.602 18.6307ZM99.4187 21.0103L101.213 12.0015L99.2517 11.6108L97.4573 20.6196L99.4187 21.0103ZM187.985 52.7485L188.756 52.1107L187.83 50.9928L187.115 52.2561L187.985 52.7485ZM196.811 63.4053L197.756 63.7316L197.94 63.2003L197.581 62.7674L196.811 63.4053ZM191.757 69.0449L191.217 68.2035L191.213 68.2058L191.757 69.0449ZM182.309 73.0732L182.051 72.107L182.044 72.1091L182.309 73.0732ZM162.753 73.293L162.432 74.2398L162.434 74.2407L162.753 73.293ZM156.931 69.4111L157.716 68.7918L157.713 68.7888L156.931 69.4111ZM155.356 47.1821L154.42 46.8296L154.419 46.8331L155.356 47.1821ZM159.604 39.7114L158.917 38.9847L158.915 38.9867L159.604 39.7114ZM165.39 35.5L164.918 34.6182L164.914 34.6205L165.39 35.5ZM187.656 33.6323L187.317 34.5734L187.327 34.5768L187.656 33.6323ZM195.017 37.917L195.783 38.5594L196.405 37.8176L195.684 37.172L195.017 37.917ZM174.912 61.9038L174.145 61.2614L172.769 62.9038H174.912V61.9038ZM179.965 60.8052L180.384 61.7132L180.39 61.7103L179.965 60.8052ZM184.396 57.6191L185.11 58.3199L185.116 58.3135L184.396 57.6191ZM177.841 44.2158L178.619 44.8443L179.394 43.8853L178.296 43.3251L177.841 44.2158ZM170.334 44.106L169.938 43.1877L169.931 43.1906L170.334 44.106ZM167.734 46.0103L168.524 46.6228L168.539 46.6036L168.553 46.5837L167.734 46.0103ZM166.599 58.1318L165.642 58.4223L166.19 60.2287L167.376 58.7603L166.599 58.1318ZM187.215 53.3864L196.041 64.0431L197.581 62.7674L188.756 52.1107L187.215 53.3864ZM195.866 63.0789C195.258 64.8395 193.773 66.5622 191.217 68.2035L192.298 69.8864C195.064 68.1097 196.948 66.0726 197.756 63.7316L195.866 63.0789ZM191.213 68.2058C188.681 69.8473 185.632 71.1521 182.051 72.107L182.567 74.0395C186.31 73.0412 189.56 71.6606 192.301 69.8841L191.213 68.2058ZM182.044 72.1091C178.489 73.0872 174.941 73.5747 171.396 73.5747V75.5747C175.127 75.5747 178.853 75.0613 182.574 74.0374L182.044 72.1091ZM171.396 73.5747C168.26 73.5747 165.49 73.1589 163.072 72.3452L162.434 74.2407C165.095 75.136 168.086 75.5747 171.396 75.5747V73.5747ZM163.075 72.3461C160.706 71.541 158.941 70.3452 157.716 68.7918L156.145 70.0304C157.655 71.9438 159.772 73.3359 162.432 74.2398L163.075 72.3461ZM157.713 68.7888C155.515 66.0234 154.378 62.449 154.378 57.9854H152.378C152.378 62.799 153.61 66.8418 156.148 70.0335L157.713 68.7888ZM154.378 57.9854C154.378 54.4461 155.015 50.9631 156.293 47.5311L154.419 46.8331C153.06 50.4813 152.378 54.2003 152.378 57.9854H154.378ZM156.292 47.5347C157.619 44.0107 158.971 41.6935 160.293 40.4361L158.915 38.9867C157.259 40.5614 155.778 43.2246 154.42 46.8296L156.292 47.5347ZM160.291 40.4382C162.012 38.8111 163.871 37.4594 165.866 36.3795L164.914 34.6205C162.759 35.7867 160.76 37.2426 158.917 38.9847L160.291 40.4382ZM165.862 36.3818C167.891 35.2964 169.987 34.4843 172.151 33.9433L171.666 32.003C169.338 32.585 167.088 33.4575 164.918 34.6182L165.862 36.3818ZM172.151 33.9433C174.316 33.402 176.542 33.1309 178.83 33.1309V31.1309C176.382 31.1309 173.993 31.4212 171.666 32.003L172.151 33.9433ZM178.83 33.1309C181.821 33.1309 184.648 33.6132 187.317 34.5733L187.994 32.6913C185.097 31.6495 182.04 31.1309 178.83 31.1309V33.1309ZM187.327 34.5768C190.017 35.5123 192.354 36.8751 194.35 38.662L195.684 37.172C193.48 35.1991 190.91 33.7054 187.984 32.6878L187.327 34.5768ZM194.25 37.2746L174.145 61.2614L175.678 62.5462L195.783 38.5594L194.25 37.2746ZM174.912 62.9038C176.836 62.9038 178.663 62.5074 180.384 61.7131L179.546 59.8972C178.093 60.5678 176.552 60.9038 174.912 60.9038V62.9038ZM180.39 61.7103C182.117 60.8993 183.69 59.7652 185.11 58.3198L183.683 56.9184C182.417 58.2074 181.036 59.1974 179.54 59.9L180.39 61.7103ZM185.116 58.3135C186.523 56.8554 187.769 55.1624 188.856 53.241L187.115 52.2561C186.103 54.0456 184.955 55.5997 183.677 56.9248L185.116 58.3135ZM178.296 43.3251C176.97 42.6487 175.595 42.3003 174.179 42.3003V44.3003C175.254 44.3003 176.32 44.5623 177.387 45.1066L178.296 43.3251ZM174.179 42.3003C172.721 42.3003 171.304 42.5983 169.938 43.1877L170.73 45.0242C171.854 44.5394 173.001 44.3003 174.179 44.3003V42.3003ZM169.931 43.1906C168.62 43.7677 167.572 44.4981 166.915 45.4368L168.553 46.5837C168.921 46.0576 169.607 45.5185 170.737 45.0213L169.931 43.1906ZM166.943 45.3977C165.302 47.5159 164.463 49.8775 164.463 52.4556H166.463C166.463 50.3462 167.139 48.4109 168.524 46.6228L166.943 45.3977ZM164.463 52.4556C164.463 53.377 164.556 54.2668 164.743 55.1229L166.697 54.6955C166.542 53.989 166.463 53.2431 166.463 52.4556H164.463ZM164.743 55.1229C164.922 55.9425 165.224 57.0461 165.642 58.4223L167.556 57.8414C167.143 56.4832 166.859 55.4383 166.697 54.6955L164.743 55.1229ZM167.376 58.7603L178.619 44.8443L177.063 43.5874L165.821 57.5034L167.376 58.7603ZM199.969 16.3105L200.873 16.7391L200.874 16.7363L199.969 16.3105ZM231.5 9.53564L231.252 10.5044L231.256 10.5055L231.5 9.53564ZM249.481 14.8091L250.396 15.2118L250.842 14.1988L249.789 13.8578L249.481 14.8091ZM243.182 31.2886L242.475 31.9957L242.768 32.2886H243.182V31.2886ZM239.813 29.3843L239.336 30.2634L239.343 30.2668L239.349 30.2701L239.813 29.3843ZM233.148 26.1982L232.754 27.1174L232.757 27.1188L233.148 26.1982ZM227.289 24.4038L227.401 23.4101L227.395 23.4095L227.289 24.4038ZM222.491 23.2686L222.226 24.2329L222.229 24.2335L222.491 23.2686ZM214.361 22.9023L214.939 23.7188L214.95 23.7107L214.961 23.7023L214.361 22.9023ZM214.105 28.2856L213.321 28.9059L213.328 28.9148L214.105 28.2856ZM226.666 37.0015L227.108 36.1044L227.108 36.1043L226.666 37.0015ZM235.162 42.5312L234.507 43.2867L234.515 43.2938L235.162 42.5312ZM243.731 54.9458L242.77 55.222L242.774 55.2352L243.731 54.9458ZM243.475 66.9941L244.379 67.4216L244.385 67.4093L244.39 67.3969L243.475 66.9941ZM236.92 73.8423L236.479 72.9448L236.473 72.9479L236.92 73.8423ZM218.829 75.2705L218.996 74.2845L218.989 74.2834L218.829 75.2705ZM210.516 73.4761L210.779 72.5113L210.773 72.5097L210.516 73.4761ZM202.057 71.0225L201.75 71.9743L201.759 71.9772L202.057 71.0225ZM194.256 68.4956L193.356 68.06L192.857 69.0912L193.946 69.4463L194.256 68.4956ZM196.051 64.0278L196.988 64.3779L196.992 64.3655L196.051 64.0278ZM198.138 58.2051L199.08 58.5423L199.084 58.5298L198.138 58.2051ZM199.713 53.8838L200.644 54.2489L200.647 54.2409L200.65 54.2329L199.713 53.8838ZM200.555 52.0161L201.19 51.2434L200.913 51.0161H200.555V52.0161ZM207.44 55.7148L207.002 56.6137L207.006 56.6159L207.44 55.7148ZM216.485 58.9009L216.371 59.8943L216.382 59.8955L216.392 59.8965L216.485 58.9009ZM224.322 60.8052L224.08 61.7754L224.088 61.7773L224.322 60.8052ZM229.376 60.4023L228.785 59.5959L228.776 59.6023L229.376 60.4023ZM223.37 50.8076L223.836 49.9227L223.834 49.9217L223.37 50.8076ZM212.933 43.9595L212.32 44.7497L212.326 44.754L212.933 43.9595ZM202.899 33.7422L202.093 34.3349L202.098 34.3406L202.899 33.7422ZM200.874 16.7363C203.385 11.4006 208.632 8.59473 217.071 8.59473V6.59473C208.176 6.59473 202.022 9.59935 199.064 15.8847L200.874 16.7363ZM217.071 8.59473C221.542 8.59473 226.268 9.22831 231.252 10.5044L231.748 8.56689C226.625 7.25509 221.731 6.59473 217.071 6.59473V8.59473ZM231.256 10.5055C236.282 11.7679 242.253 13.5187 249.173 15.7604L249.789 13.8578C242.842 11.6072 236.826 9.84243 231.744 8.56578L231.256 10.5055ZM248.566 14.4063C248.012 15.6656 246.851 18.7543 245.098 23.6256L246.979 24.3031C248.741 19.4087 249.876 16.3939 250.396 15.2118L248.566 14.4063ZM245.098 23.6256C244.219 26.0651 243.546 27.8861 243.074 29.0942C242.838 29.7006 242.658 30.1392 242.531 30.4204C242.466 30.565 242.426 30.6447 242.406 30.6789C242.394 30.7005 242.407 30.6742 242.442 30.6305C242.458 30.6103 242.506 30.5524 242.586 30.4911C242.644 30.4461 242.856 30.2886 243.182 30.2886V32.2886C243.517 32.2886 243.741 32.1262 243.811 32.0718C243.902 32.0009 243.964 31.9287 243.996 31.8894C244.062 31.8076 244.112 31.724 244.144 31.6693C244.211 31.5509 244.283 31.4018 244.355 31.2412C244.503 30.9121 244.698 30.4351 244.938 29.8209C245.419 28.5875 246.1 26.7464 246.979 24.3031L245.098 23.6256ZM243.889 30.5815C243.749 30.4413 243.547 30.3097 243.395 30.2135C243.211 30.0976 242.972 29.9576 242.685 29.7955C242.11 29.4703 241.306 29.0373 240.277 28.4984L239.349 30.2701C240.371 30.8055 241.154 31.227 241.701 31.5366C241.976 31.6918 242.183 31.8142 242.329 31.9059C242.506 32.0172 242.518 32.0382 242.475 31.9957L243.889 30.5815ZM240.29 28.5052C238.232 27.3894 235.981 26.3138 233.538 25.2777L232.757 27.1188C235.149 28.1334 237.342 29.1819 239.336 30.2634L240.29 28.5052ZM233.542 25.2791C231.113 24.2384 229.056 23.597 227.401 23.4101L227.176 25.3975C228.548 25.5524 230.397 26.1073 232.754 27.1174L233.542 25.2791ZM227.395 23.4095C226.808 23.3466 225.294 22.9942 222.754 22.3036L222.229 24.2335C224.718 24.9101 226.402 25.3146 227.182 25.3981L227.395 23.4095ZM222.756 22.3042C220.253 21.6172 218.288 21.2432 216.925 21.2432V23.2432C218.003 23.2432 219.749 23.5527 222.226 24.2329L222.756 22.3042ZM216.925 21.2432C215.694 21.2432 214.591 21.4802 213.761 22.1023L214.961 23.7023C215.304 23.4455 215.909 23.2432 216.925 23.2432V21.2432ZM213.784 22.0859C212.602 22.9215 211.86 24.0245 211.86 25.3926H213.86C213.86 24.8564 214.118 24.2992 214.939 23.7188L213.784 22.0859ZM211.86 25.3926C211.86 26.5875 212.42 27.7673 213.321 28.9059L214.889 27.6654C214.13 26.7044 213.86 25.9555 213.86 25.3926H211.86ZM213.328 28.9148C214.219 30.0164 215.368 31.0957 216.757 32.1566L217.971 30.567C216.675 29.5772 215.651 28.6057 214.882 27.6564L213.328 28.9148ZM216.757 32.1566C218.134 33.2077 219.655 34.2297 221.319 35.2234L222.345 33.5061C220.737 32.5466 219.28 31.5667 217.971 30.567L216.757 32.1566ZM221.319 35.2234C222.977 36.2127 224.612 37.1046 226.224 37.8986L227.108 36.1043C225.547 35.3358 223.959 34.4699 222.345 33.5061L221.319 35.2234ZM226.224 37.8986C229.43 39.4776 232.188 41.2754 234.507 43.2867L235.817 41.7758C233.351 39.6367 230.445 37.748 227.108 36.1044L226.224 37.8986ZM234.515 43.2938C236.879 45.2996 238.688 47.2804 239.965 49.2314L241.638 48.1358C240.23 45.9852 238.279 43.8645 235.809 41.7687L234.515 43.2938ZM239.965 49.2314C241.259 51.2074 242.19 53.2041 242.77 55.222L244.693 54.6696C244.052 52.4395 243.03 50.2613 241.638 48.1358L239.965 49.2314ZM242.774 55.2352C243.385 57.2562 243.684 59.1479 243.684 60.915H245.684C245.684 58.9224 245.347 56.8346 244.689 54.6564L242.774 55.2352ZM243.684 60.915C243.684 63.0135 243.304 64.9006 242.56 66.5914L244.39 67.3969C245.258 65.4255 245.684 63.26 245.684 60.915H243.684ZM242.571 66.5667C241.17 69.5302 239.139 71.6373 236.479 72.9448L237.361 74.7397C240.463 73.2152 242.802 70.7569 244.379 67.4216L242.571 66.5667ZM236.473 72.9479C233.76 74.304 230.478 75.0029 226.593 75.0029V77.0029C230.715 77.0029 234.318 76.2614 237.367 74.7367L236.473 72.9479ZM226.593 75.0029C224.367 75.0029 221.836 74.7659 218.996 74.2846L218.662 76.2564C221.584 76.7517 224.229 77.0029 226.593 77.0029V75.0029ZM218.989 74.2834C216.166 73.825 213.43 73.2341 210.779 72.5113L210.253 74.4408C212.974 75.1829 215.779 75.7883 218.669 76.2576L218.989 74.2834ZM210.773 72.5097C208.127 71.8057 205.321 70.9918 202.354 70.0677L201.759 71.9772C204.749 72.9086 207.583 73.7304 210.259 74.4425L210.773 72.5097ZM202.363 70.0707C199.41 69.1188 196.811 68.2769 194.566 67.5449L193.946 69.4463C196.194 70.1792 198.795 71.0218 201.75 71.9742L202.363 70.0707ZM195.157 68.9312C195.546 68.1261 196.159 66.5942 196.988 64.3778L195.114 63.6778C194.282 65.9048 193.699 67.3515 193.356 68.06L195.157 68.9312ZM196.992 64.3655C197.798 62.1193 198.494 60.1782 199.08 58.5423L197.197 57.8679C196.611 59.5034 195.915 61.4442 195.11 63.6902L196.992 64.3655ZM199.084 58.5298C199.642 56.9039 200.162 55.4774 200.644 54.2489L198.782 53.5187C198.287 54.7804 197.757 56.2348 197.192 57.8804L199.084 58.5298ZM200.65 54.2329C200.88 53.6157 201.057 53.1741 201.183 52.8941C201.248 52.7496 201.287 52.6771 201.302 52.6523C201.312 52.6357 201.293 52.6712 201.245 52.723C201.221 52.7489 201.165 52.8065 201.077 52.8635C200.994 52.9169 200.812 53.0161 200.555 53.0161V51.0161C200.286 51.0161 200.09 51.1202 199.992 51.1833C199.889 51.25 199.816 51.3222 199.775 51.3676C199.691 51.4583 199.63 51.5521 199.593 51.6134C199.514 51.7442 199.435 51.9052 199.36 52.0719C199.205 52.4146 199.01 52.9068 198.776 53.5347L200.65 54.2329ZM199.92 52.7888C200.35 53.1416 201.182 53.6337 202.316 54.2429C203.48 54.8683 205.043 55.6591 207.002 56.6137L207.878 54.816C205.93 53.8663 204.393 53.0885 203.262 52.481C202.101 51.8573 201.444 51.4521 201.19 51.2434L199.92 52.7888ZM207.006 56.6159C210.932 58.505 214.073 59.6301 216.371 59.8943L216.6 57.9074C214.65 57.6834 211.761 56.6844 207.874 54.8138L207.006 56.6159ZM216.392 59.8965C217.077 59.9608 218.332 60.2313 220.214 60.7445L220.74 58.815C218.862 58.3029 217.456 57.9875 216.579 57.9052L216.392 59.8965ZM220.214 60.7445C222.093 61.257 223.384 61.6015 224.08 61.7753L224.565 59.835C223.893 59.6671 222.621 59.328 220.74 58.815L220.214 60.7445ZM224.088 61.7773C224.892 61.9714 225.804 62.0615 226.812 62.0615V60.0615C225.917 60.0615 225.169 59.9808 224.557 59.8331L224.088 61.7773ZM226.812 62.0615C228.043 62.0615 229.147 61.8244 229.976 61.2023L228.776 59.6023C228.434 59.8591 227.828 60.0615 226.812 60.0615V62.0615ZM229.967 61.2087C231.187 60.3141 232.024 59.198 232.024 57.8389H230.024C230.024 58.2864 229.762 58.8792 228.785 59.5959L229.967 61.2087ZM232.024 57.8389C232.024 56.4106 231.127 55.0741 229.787 53.8432C228.42 52.5871 226.42 51.2828 223.836 49.9227L222.904 51.6925C225.423 53.0179 227.25 54.2283 228.434 55.316C229.645 56.4288 230.024 57.2651 230.024 57.8389H232.024ZM223.834 49.9217C220.774 48.3199 217.343 46.0718 213.54 43.165L212.326 44.754C216.189 47.7066 219.717 50.0239 222.906 51.6936L223.834 49.9217ZM213.546 43.1693C209.808 40.2703 206.527 36.929 203.7 33.1438L202.098 34.3406C205.032 38.2702 208.441 41.7404 212.32 44.7496L213.546 43.1693ZM203.704 33.1495C200.942 29.396 199.614 25.7293 199.614 22.1333H197.614C197.614 26.2522 199.143 30.3247 202.093 34.3349L203.704 33.1495ZM199.614 22.1333C199.614 20.3137 200.029 18.5185 200.873 16.7391L199.066 15.882C198.103 17.9112 197.614 19.9979 197.614 22.1333H199.614ZM286.221 52.7485L286.991 52.1107L286.065 50.9928L285.35 52.2561L286.221 52.7485ZM295.046 63.4053L295.992 63.7316L296.175 63.2003L295.817 62.7674L295.046 63.4053ZM289.993 69.0449L289.452 68.2035L289.449 68.2058L289.993 69.0449ZM280.544 73.0732L280.287 72.107L280.279 72.1091L280.544 73.0732ZM260.989 73.293L260.667 74.2398L260.67 74.2407L260.989 73.293ZM255.166 69.4111L255.951 68.7918L255.949 68.7888L255.166 69.4111ZM253.591 47.1821L252.656 46.8296L252.654 46.8331L253.591 47.1821ZM257.839 39.7114L257.152 38.9847L257.15 38.9867L257.839 39.7114ZM263.625 35.5L263.154 34.6182L263.15 34.6205L263.625 35.5ZM285.891 33.6323L285.553 34.5734L285.563 34.5768L285.891 33.6323ZM293.252 37.917L294.018 38.5594L294.64 37.8176L293.919 37.172L293.252 37.917ZM273.147 61.9038L272.381 61.2614L271.004 62.9038H273.147V61.9038ZM278.201 60.8052L278.62 61.7132L278.626 61.7103L278.201 60.8052ZM282.632 57.6191L283.345 58.3199L283.351 58.3135L282.632 57.6191ZM276.077 44.2158L276.855 44.8443L277.629 43.8853L276.531 43.3251L276.077 44.2158ZM268.569 44.106L268.173 43.1877L268.167 43.1906L268.569 44.106ZM265.969 46.0103L266.76 46.6228L266.775 46.6036L266.788 46.5837L265.969 46.0103ZM264.834 58.1318L263.877 58.4223L264.425 60.2287L265.612 58.7603L264.834 58.1318ZM285.451 53.3864L294.276 64.0431L295.817 62.7674L286.991 52.1107L285.451 53.3864ZM294.101 63.0789C293.493 64.8395 292.008 66.5622 289.452 68.2035L290.533 69.8864C293.3 68.1097 295.183 66.0726 295.992 63.7316L294.101 63.0789ZM289.449 68.2058C286.916 69.8473 283.868 71.1521 280.287 72.107L280.802 74.0395C284.545 73.0412 287.796 71.6606 290.537 69.8841L289.449 68.2058ZM280.279 72.1091C276.725 73.0872 273.176 73.5747 269.631 73.5747V75.5747C273.362 75.5747 277.089 75.0613 280.81 74.0374L280.279 72.1091ZM269.631 73.5747C266.496 73.5747 263.726 73.1589 261.308 72.3452L260.67 74.2407C263.33 75.136 266.322 75.5747 269.631 75.5747V73.5747ZM261.311 72.3461C258.941 71.541 257.176 70.3452 255.951 68.7918L254.381 70.0304C255.89 71.9438 258.007 73.3359 260.667 74.2398L261.311 72.3461ZM255.949 68.7888C253.75 66.0234 252.614 62.449 252.614 57.9854H250.614C250.614 62.799 251.846 66.8418 254.383 70.0335L255.949 68.7888ZM252.614 57.9854C252.614 54.4461 253.25 50.9631 254.528 47.5311L252.654 46.8331C251.296 50.4813 250.614 54.2003 250.614 57.9854H252.614ZM254.527 47.5347C255.855 44.0107 257.206 41.6935 258.528 40.4361L257.15 38.9867C255.494 40.5614 254.014 43.2246 252.656 46.8296L254.527 47.5347ZM258.526 40.4382C260.248 38.8111 262.106 37.4594 264.101 36.3795L263.15 34.6205C260.995 35.7867 258.996 37.2426 257.152 38.9847L258.526 40.4382ZM264.097 36.3818C266.126 35.2964 268.222 34.4843 270.387 33.9433L269.902 32.003C267.573 32.585 265.324 33.4575 263.154 34.6182L264.097 36.3818ZM270.387 33.9433C272.552 33.402 274.777 33.1309 277.065 33.1309V31.1309C274.617 31.1309 272.229 31.4212 269.902 32.003L270.387 33.9433ZM277.065 33.1309C280.056 33.1309 282.883 33.6132 285.553 34.5733L286.23 32.6913C283.333 31.6495 280.276 31.1309 277.065 31.1309V33.1309ZM285.563 34.5768C288.252 35.5123 290.589 36.8751 292.585 38.662L293.919 37.172C291.716 35.1991 289.145 33.7054 286.22 32.6878L285.563 34.5768ZM292.486 37.2746L272.381 61.2614L273.913 62.5462L294.018 38.5594L292.486 37.2746ZM273.147 62.9038C275.071 62.9038 276.899 62.5074 278.62 61.7131L277.782 59.8972C276.329 60.5678 274.787 60.9038 273.147 60.9038V62.9038ZM278.626 61.7103C280.353 60.8993 281.926 59.7652 283.345 58.3198L281.918 56.9184C280.652 58.2074 279.271 59.1974 277.776 59.9L278.626 61.7103ZM283.351 58.3135C284.758 56.8554 286.004 55.1624 287.091 53.241L285.35 52.2561C284.338 54.0456 283.191 55.5997 281.912 56.9248L283.351 58.3135ZM276.531 43.3251C275.205 42.6487 273.83 42.3003 272.415 42.3003V44.3003C273.489 44.3003 274.555 44.5623 275.622 45.1066L276.531 43.3251ZM272.415 42.3003C270.956 42.3003 269.54 42.5983 268.173 43.1877L268.965 45.0242C270.089 44.5394 271.236 44.3003 272.415 44.3003V42.3003ZM268.167 43.1906C266.855 43.7677 265.807 44.4981 265.15 45.4368L266.788 46.5837C267.157 46.0576 267.842 45.5185 268.972 45.0213L268.167 43.1906ZM265.179 45.3977C263.537 47.5159 262.699 49.8775 262.699 52.4556H264.699C264.699 50.3462 265.374 48.4109 266.76 46.6228L265.179 45.3977ZM262.699 52.4556C262.699 53.377 262.791 54.2668 262.978 55.1229L264.932 54.6955C264.777 53.989 264.699 53.2431 264.699 52.4556H262.699ZM262.978 55.1229C263.157 55.9425 263.459 57.0461 263.877 58.4223L265.791 57.8414C265.379 56.4832 265.094 55.4383 264.932 54.6955L262.978 55.1229ZM265.612 58.7603L276.855 44.8443L275.299 43.5874L264.056 57.5034L265.612 58.7603ZM324.022 37.1479L324.577 37.98L323.896 36.156L324.022 37.1479ZM320.031 38.4297L319.57 37.5419L319.564 37.5455L320.031 38.4297ZM314.501 43.9229L313.599 43.4914L313.595 43.5L314.501 43.9229ZM316.881 52.6021L317.439 51.7717L317.434 51.7685L316.881 52.6021ZM324.022 54.3232L324.175 55.3116L325.022 55.1812V54.3232H324.022ZM324.022 46.5229H325.022V45.5229H324.022V46.5229ZM322.265 46.0103L321.64 46.7911L321.674 46.8182L321.71 46.8423L322.265 46.0103ZM324.315 30.7026L323.608 31.4097L324.096 31.8977L324.726 31.6146L324.315 30.7026ZM339.623 23.8179L340.623 23.8036L340.601 22.2815L339.213 22.9059L339.623 23.8179ZM339.916 44.2891L338.916 44.3034L338.917 44.3726L338.928 44.4411L339.916 44.2891ZM340.062 51.7598L339.073 51.6183L339.061 51.6984L339.063 51.7793L340.062 51.7598ZM340.502 74.2085L340.555 75.2071L341.521 75.1556L341.502 74.1889L340.502 74.2085ZM324.022 75.0874H323.022V76.1422L324.076 76.086L324.022 75.0874ZM324.022 72.8535H325.022V71.364L323.644 71.928L324.022 72.8535ZM309.96 73.5493L309.632 74.4942L309.636 74.4955L309.96 73.5493ZM305.199 70.9858L304.56 71.7548L304.567 71.7608L304.575 71.7667L305.199 70.9858ZM300.109 63.6982L299.179 64.0671L299.18 64.0696L300.109 63.6982ZM303.368 39.7114L302.644 39.0218L302.639 39.0268L303.368 39.7114ZM312.414 32.7168L311.961 31.8252L311.958 31.8266L312.414 32.7168ZM324.022 30.4097L324.73 29.7026L324.479 29.4522L324.127 29.4152L324.022 30.4097ZM323.896 36.156C322.426 36.3431 320.983 36.8095 319.57 37.5419L320.491 39.3174C321.715 38.6827 322.933 38.2946 324.149 38.1399L323.896 36.156ZM319.564 37.5455C318.191 38.2705 316.997 39.1335 315.991 40.1396L317.405 41.5538C318.255 40.7044 319.282 39.9561 320.498 39.3139L319.564 37.5455ZM315.991 40.1396C314.988 41.1431 314.187 42.2607 313.599 43.4914L315.403 44.3543C315.889 43.339 316.553 42.4057 317.405 41.5538L315.991 40.1396ZM313.595 43.5C313.028 44.7139 312.732 45.944 312.732 47.1821H314.732C314.732 46.2718 314.948 45.329 315.407 44.3457L313.595 43.5ZM312.732 47.1821C312.732 49.7884 313.994 51.8878 316.329 53.4356L317.434 51.7685C315.57 50.5331 314.732 49.0192 314.732 47.1821H312.732ZM316.324 53.4324C318.315 54.7685 320.386 55.4697 322.521 55.4697V53.4697C320.848 53.4697 319.158 52.9258 317.439 51.7717L316.324 53.4324ZM322.521 55.4697C322.962 55.4697 323.521 55.4122 324.175 55.3116L323.87 53.3349C323.255 53.4296 322.812 53.4697 322.521 53.4697V55.4697ZM325.022 54.3232V46.5229H323.022V54.3232H325.022ZM324.022 45.5229C323.546 45.5229 323.156 45.4027 322.819 45.1782L321.71 46.8423C322.399 47.3014 323.18 47.5229 324.022 47.5229V45.5229ZM322.889 45.2294C322.526 44.9387 322.166 44.2205 322.166 42.6411H320.166C320.166 44.382 320.539 45.91 321.64 46.7911L322.889 45.2294ZM322.166 42.6411C322.166 40.5647 322.966 39.0542 324.577 37.98L323.468 36.3159C321.27 37.7807 320.166 39.9323 320.166 42.6411H322.166ZM324.726 31.6146L340.033 24.7299L339.213 22.9059L323.905 29.7906L324.726 31.6146ZM338.623 23.8322L338.916 44.3034L340.916 44.2748L340.623 23.8036L338.623 23.8322ZM338.928 44.4411C339.114 45.6496 339.209 47.0377 339.209 48.6104H341.209C341.209 46.9603 341.109 45.4676 340.904 44.137L338.928 44.4411ZM339.209 48.6104C339.209 50.0174 339.16 51.0084 339.073 51.6183L341.052 51.9012C341.161 51.1439 341.209 50.0353 341.209 48.6104H339.209ZM339.063 51.7793L339.502 74.2281L341.502 74.1889L341.062 51.7402L339.063 51.7793ZM340.449 73.2099L323.969 74.0888L324.076 76.086L340.555 75.2071L340.449 73.2099ZM325.022 75.0874V72.8535H323.022V75.0874H325.022ZM323.644 71.928C321.071 72.9805 318.489 73.5015 315.893 73.5015V75.5015C318.765 75.5015 321.603 74.9238 324.401 73.7791L323.644 71.928ZM315.893 73.5015C313.895 73.5015 312.028 73.1998 310.284 72.6032L309.636 74.4955C311.603 75.1683 313.691 75.5015 315.893 75.5015V73.5015ZM310.288 72.6045C308.551 72.0023 307.067 71.1996 305.824 70.205L304.575 71.7667C306.017 72.9205 307.707 73.8268 309.632 74.4942L310.288 72.6045ZM305.839 70.2169C303.813 68.5328 302.206 66.2494 301.037 63.3269L299.18 64.0696C300.453 67.2506 302.24 69.8256 304.56 71.7548L305.839 70.2169ZM301.038 63.3294C299.866 60.3745 299.278 57.2529 299.278 53.957H297.278C297.278 57.4971 297.911 60.8697 299.179 64.0671L301.038 63.3294ZM299.278 53.957C299.278 48.277 300.909 43.79 304.097 40.396L302.639 39.0268C299.04 42.8594 297.278 47.8695 297.278 53.957H299.278ZM304.092 40.4011C306.961 37.3891 309.888 35.1328 312.869 33.607L311.958 31.8266C308.738 33.4746 305.635 35.8814 302.644 39.0218L304.092 40.4011ZM312.866 33.6084C315.862 32.087 318.894 31.3364 321.972 31.3364V29.3364C318.555 29.3364 315.215 30.1728 311.961 31.8252L312.866 33.6084ZM321.972 31.3364C322.866 31.3364 323.507 31.361 323.918 31.4042L324.127 29.4152C323.61 29.3607 322.884 29.3364 321.972 29.3364V31.3364ZM323.315 31.1168L323.608 31.4097L325.023 29.9955L324.73 29.7026L323.315 31.1168ZM390.169 37.2944L390.715 38.1323L391.302 37.7498L391.143 37.0675L390.169 37.2944ZM377.242 45.7173L376.309 46.0791L376.755 47.2278L377.788 46.5551L377.242 45.7173ZM374.678 41.5425L373.933 42.2097L373.941 42.2179L373.948 42.2259L374.678 41.5425ZM367.354 43.5933L366.436 43.1961L366.435 43.1982L367.354 43.5933ZM366.438 71.4985L366.554 72.4919L367.508 72.381L367.436 71.4228L366.438 71.4985ZM348.458 73.5859L347.467 73.7238L347.602 74.692L348.573 74.5793L348.458 73.5859ZM347.029 49.3794L348.028 49.4364L348.03 49.3925L348.029 49.3486L347.029 49.3794ZM346.37 27.9927L346.246 27.0004L345.343 27.1131L345.371 28.0235L346.37 27.9927ZM360.762 26.1982L361.519 25.5446L361.169 25.1397L360.638 25.2059L360.762 26.1982ZM362.85 28.6152L362.093 29.2689L362.535 29.7804L363.174 29.5612L362.85 28.6152ZM367.574 27.1138L367.301 26.1516L367.297 26.1529L367.574 27.1138ZM381.746 27.4067L381.232 28.2642L381.245 28.2723L381.259 28.28L381.746 27.4067ZM387.239 31.4351L386.52 32.1295L386.526 32.1359L387.239 31.4351ZM389.623 36.4566L376.696 44.8794L377.788 46.5551L390.715 38.1323L389.623 36.4566ZM378.174 45.3555C377.498 43.6144 376.579 42.1101 375.408 40.8591L373.948 42.2259C374.925 43.2698 375.716 44.5486 376.309 46.0791L378.174 45.3555ZM375.423 40.8752C374.262 39.5793 372.926 38.7847 371.419 38.7847V40.7847C372.158 40.7847 372.995 41.1619 373.933 42.2097L375.423 40.8752ZM371.419 38.7847C369.172 38.7847 367.571 40.5739 366.436 43.1961L368.272 43.9904C369.334 41.5345 370.443 40.7847 371.419 40.7847V38.7847ZM366.435 43.1982C365.297 45.8455 364.779 50.3027 364.779 56.4106H366.779C366.779 50.3115 367.311 46.2238 368.273 43.9883L366.435 43.1982ZM364.779 56.4106C364.779 60.7155 365.001 65.7712 365.441 71.5743L367.436 71.4228C366.997 65.6536 366.779 60.6507 366.779 56.4106H364.779ZM366.323 70.5052L348.342 72.5926L348.573 74.5793L366.554 72.4919L366.323 70.5052ZM349.448 73.4481C348.403 65.9375 347.883 59.2589 347.883 53.4077H345.883C345.883 59.373 346.413 66.1465 347.467 73.7238L349.448 73.4481ZM347.883 53.4077C347.883 52.4592 347.93 51.1382 348.028 49.4364L346.031 49.3223C345.933 51.0385 345.883 52.4031 345.883 53.4077H347.883ZM348.029 49.3486L347.37 27.9619L345.371 28.0235L346.03 49.4102L348.029 49.3486ZM346.494 28.985L360.886 27.1906L360.638 25.2059L346.246 27.0004L346.494 28.985ZM360.005 26.8519L362.093 29.2689L363.606 27.9616L361.519 25.5446L360.005 26.8519ZM363.174 29.5612C364.87 28.9796 366.429 28.4843 367.851 28.0747L367.297 26.1529C365.838 26.5733 364.247 27.079 362.525 27.6693L363.174 29.5612ZM367.846 28.0759C369.288 27.6674 370.627 27.3449 371.864 27.107L371.486 25.143C370.184 25.3934 368.789 25.7301 367.301 26.1516L367.846 28.0759ZM371.864 27.107C373.076 26.8739 374.246 26.7588 375.374 26.7588V24.7588C374.11 24.7588 372.813 24.8878 371.486 25.143L371.864 27.107ZM375.374 26.7588C377.634 26.7588 379.576 27.2707 381.232 28.2642L382.261 26.5492C380.254 25.3455 377.948 24.7588 375.374 24.7588V26.7588ZM381.259 28.28C383.522 29.5426 385.265 30.8294 386.52 32.1294L387.959 30.7407C386.528 29.2575 384.609 27.8588 382.233 26.5334L381.259 28.28ZM386.526 32.1359C387.729 33.3605 388.638 35.1292 389.195 37.5214L391.143 37.0675C390.528 34.4303 389.484 32.2928 387.953 30.7342L386.526 32.1359ZM429.655 29.4941L430.195 28.6521L430.189 28.6487L429.655 29.4941ZM433.867 33.6689L433.047 34.2417L433.051 34.2481L433.056 34.2544L433.867 33.6689ZM436.796 38.5762L435.885 38.9878L435.888 38.9933L436.796 38.5762ZM438.151 41.7988L438.367 42.7753L439.451 42.5357L439.1 41.4826L438.151 41.7988ZM424.565 44.8018L423.581 44.9789L423.765 46.0027L424.781 45.7782L424.565 44.8018ZM419.255 41.7988V40.7988H419.208L419.161 40.8033L419.255 41.7988ZM409.953 52.895H408.953V52.9109L408.954 52.9267L409.953 52.895ZM415.043 61.9038L414.857 62.8863L414.95 62.9038H415.043V61.9038ZM422.404 57.7656L421.59 57.1859L421.587 57.1889L422.404 57.7656ZM424.638 53.5176L424.836 52.5374L424.001 52.3686L423.702 53.1665L424.638 53.5176ZM438.225 56.2642L439.182 56.5515L439.498 55.5013L438.423 55.284L438.225 56.2642ZM437.163 59.1938L438.095 59.5556L438.096 59.5518L437.163 59.1938ZM432.695 65.749L431.936 65.0982L431.932 65.1022L432.695 65.749ZM424.931 71.4985L424.572 70.5652L424.568 70.5669L424.931 71.4985ZM400.249 68.2026L399.591 68.9564L399.598 68.9619L399.604 68.9672L400.249 68.2026ZM396.11 62.4165L397.042 62.054L397.039 62.0451L396.11 62.4165ZM398.454 41.2129L397.563 40.7591L397.562 40.7614L398.454 41.2129ZM402.885 34.4746L403.64 35.1303L403.645 35.1254L402.885 34.4746ZM407.939 29.897L408.494 30.729L408.496 30.7273L407.939 29.897ZM429.116 30.3362C430.551 31.2556 431.864 32.5485 433.047 34.2417L434.686 33.0962C433.379 31.2249 431.885 29.7347 430.195 28.6521L429.116 30.3362ZM433.056 34.2544C434.297 35.9733 435.236 37.5505 435.885 38.9878L437.708 38.1646C436.99 36.5745 435.975 34.8802 434.677 33.0835L433.056 34.2544ZM435.888 38.9933C436.571 40.4818 437.002 41.5124 437.203 42.1151L439.1 41.4826C438.861 40.7669 438.389 39.6491 437.705 38.159L435.888 38.9933ZM437.936 40.8224L424.349 43.8253L424.781 45.7782L438.367 42.7753L437.936 40.8224ZM425.549 44.6246C425.273 43.0897 424.408 41.9694 422.966 41.445L422.282 43.3246C422.989 43.5814 423.418 44.0724 423.581 44.9789L425.549 44.6246ZM422.966 41.445C421.779 41.0135 420.54 40.7988 419.255 40.7988V42.7988C420.313 42.7988 421.32 42.9748 422.282 43.3246L422.966 41.445ZM419.161 40.8033C415.878 41.1135 413.277 42.2652 411.512 44.3699C409.759 46.4609 408.953 49.3497 408.953 52.895H410.953C410.953 49.6289 411.697 47.2625 413.045 45.6547C414.381 44.0607 416.431 43.0701 419.349 42.7944L419.161 40.8033ZM408.954 52.9267C409.042 55.7035 409.523 57.986 410.483 59.6858C411.468 61.4285 412.94 62.5232 414.857 62.8863L415.23 60.9213C413.924 60.674 412.937 59.9622 412.225 58.7019C411.488 57.3988 411.036 55.482 410.953 52.8634L408.954 52.9267ZM415.043 62.9038C416.754 62.9038 418.327 62.4804 419.738 61.6231L418.699 59.914C417.619 60.5703 416.409 60.9038 415.043 60.9038V62.9038ZM419.738 61.6231C421.105 60.7917 422.267 59.6942 423.221 58.3423L421.587 57.1889C420.784 58.3273 419.821 59.2317 418.699 59.914L419.738 61.6231ZM423.219 58.3454C424.176 57.0004 424.96 55.5066 425.575 53.8687L423.702 53.1665C423.144 54.6535 422.439 55.9918 421.59 57.1859L423.219 58.3454ZM424.44 54.4978L438.026 57.2443L438.423 55.284L424.836 52.5374L424.44 54.4978ZM437.267 55.9768C437.133 56.4232 436.793 57.3646 436.229 58.8359L438.096 59.5518C438.655 58.0934 439.023 57.0817 439.182 56.5515L437.267 55.9768ZM436.23 58.8321C435.66 60.301 434.266 62.3789 431.936 65.0982L433.454 66.3998C435.811 63.6504 437.395 61.3582 438.095 59.5556L436.23 58.8321ZM431.932 65.1022C429.703 67.7307 427.247 69.5363 424.572 70.5652L425.29 72.4319C428.328 71.2635 431.048 69.2361 433.457 66.3959L431.932 65.1022ZM424.568 70.5669C421.231 71.8685 417.936 72.5127 414.677 72.5127V74.5127C418.206 74.5127 421.747 73.8141 425.295 72.4302L424.568 70.5669ZM414.677 72.5127C409.497 72.5127 404.915 70.8283 400.893 67.4381L399.604 68.9672C403.981 72.6571 409.018 74.5127 414.677 74.5127V72.5127ZM400.906 67.4489C399.114 65.8872 397.834 64.0899 397.042 62.0541L395.178 62.779C396.096 65.1377 397.574 67.1978 399.591 68.9564L400.906 67.4489ZM397.039 62.0451C396.209 59.9697 395.792 57.7768 395.792 55.4585H393.792C393.792 58.023 394.254 60.4688 395.182 62.7879L397.039 62.0451ZM395.792 55.4585C395.792 53.0138 396.133 50.6042 396.815 48.2271L394.893 47.6752C394.159 50.2298 393.792 52.8251 393.792 55.4585H395.792ZM396.815 48.2271C397.508 45.8142 398.353 43.6279 399.346 41.6644L397.562 40.7614C396.505 42.8506 395.616 45.1565 394.893 47.6752L396.815 48.2271ZM399.345 41.6667C400.658 39.0883 402.092 36.9133 403.64 35.1303L402.13 33.8189C400.456 35.7469 398.935 38.064 397.563 40.7591L399.345 41.6667ZM403.645 35.1254C405.206 33.3034 406.824 31.8423 408.494 30.729L407.384 29.0649C405.539 30.2954 403.787 31.886 402.126 33.8238L403.645 35.1254ZM408.496 30.7273C410.205 29.5804 411.934 28.7473 413.685 28.2174L413.106 26.3031C411.146 26.8963 409.238 27.8209 407.382 29.0667L408.496 30.7273ZM413.685 28.2174C415.45 27.6834 417.22 27.418 418.999 27.418V25.418C417.017 25.418 415.052 25.7141 413.106 26.3031L413.685 28.2174ZM418.999 27.418C422.668 27.418 426.035 28.3903 429.121 30.3396L430.189 28.6487C426.782 26.4965 423.044 25.418 418.999 25.418V27.418ZM461.708 30.7026L460.711 30.7862L460.817 32.0491L462.021 31.6524L461.708 30.7026ZM480.604 30.4097L481.109 29.5465L481.105 29.5445L480.604 30.4097ZM484.962 33.8521L484.271 34.5754L484.277 34.5809L484.962 33.8521ZM489.21 38.8691L488.378 39.4239L488.383 39.4315L489.21 38.8691ZM491.7 44.2158L490.728 44.4487L490.73 44.4573L491.7 44.2158ZM493.238 64.3208L494.231 64.4395L494.231 64.4383L493.238 64.3208ZM491.993 73L492.053 73.9982L492.855 73.9502L492.981 73.1567L491.993 73ZM476.686 73.9155L475.686 73.8756L475.642 74.9797L476.745 74.9137L476.686 73.9155ZM472.804 44.2158L473.735 43.8502L473.73 43.8382L472.804 44.2158ZM465.589 45.7173L464.673 45.3165L464.67 45.3234L465.589 45.7173ZM464.674 48.647L463.698 48.43L463.695 48.4404L463.693 48.4509L464.674 48.647ZM464.161 52.3457L463.165 52.2568L463.164 52.2656L463.164 52.2745L464.161 52.3457ZM464.674 71.4985L464.789 72.4919L465.744 72.381L465.671 71.4228L464.674 71.4985ZM446.693 73.5859L445.702 73.7226L445.836 74.6921L446.808 74.5793L446.693 73.5859ZM446.327 68.6055L447.326 68.5798L447.326 68.567L446.327 68.6055ZM446.18 62.7095L447.18 62.6974L447.18 62.6854L446.18 62.7095ZM445.924 57.1797L444.926 57.2376L444.926 57.2453L444.927 57.253L445.924 57.1797ZM445.265 51.4668L444.265 51.4875L444.266 51.557L444.277 51.6257L445.265 51.4668ZM444.276 3.71289L444.155 2.72024L443.257 2.82969L443.276 3.73359L444.276 3.71289ZM459.291 1.88184L460.287 1.79827L460.2 0.763486L459.169 0.88919L459.291 1.88184ZM462.021 31.6524C466.331 30.2316 469.992 29.542 473.023 29.542V27.542C469.707 27.542 465.824 28.2928 461.394 29.7529L462.021 31.6524ZM473.023 29.542C475.783 29.542 478.131 30.1321 480.103 31.2749L481.105 29.5445C478.78 28.197 476.075 27.542 473.023 27.542V29.542ZM480.099 31.2729C481.302 31.9765 482.692 33.0677 484.271 34.5754L485.652 33.1287C484.009 31.5602 482.494 30.3565 481.109 29.5465L480.099 31.2729ZM484.277 34.5809C485.833 36.0426 487.2 37.6566 488.378 39.4238L490.042 38.3144C488.779 36.4196 487.313 34.6889 485.647 33.1232L484.277 34.5809ZM488.383 39.4315C489.576 41.1858 490.347 42.8577 490.728 44.4487L492.673 43.983C492.224 42.1072 491.334 40.2146 490.037 38.3068L488.383 39.4315ZM490.73 44.4573C492.011 49.6061 492.641 54.0626 492.641 57.8389H494.641C494.641 53.8514 493.977 49.226 492.671 43.9744L490.73 44.4573ZM492.641 57.8389C492.641 59.8462 492.51 61.9675 492.245 64.2033L494.231 64.4383C494.504 62.1331 494.641 59.9331 494.641 57.8389H492.641ZM492.245 64.2021C491.979 66.4304 491.566 69.3096 491.006 72.8433L492.981 73.1567C493.543 69.6104 493.961 66.7034 494.231 64.4395L492.245 64.2021ZM491.933 72.0018L476.626 72.9173L476.745 74.9137L492.053 73.9982L491.933 72.0018ZM477.685 73.9555C477.734 72.7146 477.759 70.941 477.759 68.6421H475.759C475.759 70.9331 475.734 72.6751 475.686 73.8756L477.685 73.9555ZM477.759 68.6421C477.759 58.9853 476.429 50.7118 473.735 43.8503L471.873 44.5814C474.452 51.1476 475.759 59.1583 475.759 68.6421H477.759ZM473.73 43.8382C473.202 42.5445 472.653 41.501 472.066 40.764C471.497 40.0488 470.746 39.4438 469.801 39.4438V41.4438C469.833 41.4438 470.07 41.4676 470.502 42.0097C470.916 42.53 471.38 43.3725 471.878 44.5934L473.73 43.8382ZM469.801 39.4438C468.693 39.4438 467.766 40.1965 467.014 41.1382C466.233 42.1166 465.456 43.5264 464.673 45.3165L466.506 46.1181C467.26 44.3925 467.955 43.1656 468.577 42.3862C469.229 41.5701 469.639 41.4438 469.801 41.4438V39.4438ZM464.67 45.3234C464.275 46.2454 463.953 47.283 463.698 48.43L465.65 48.8639C465.883 47.8137 466.171 46.8982 466.509 46.1112L464.67 45.3234ZM463.693 48.4509C463.465 49.5917 463.29 50.8613 463.165 52.2568L465.157 52.4346C465.277 51.0958 465.443 49.8995 465.654 48.8431L463.693 48.4509ZM463.164 52.2745C463.064 53.672 463.015 55.3081 463.015 57.1797H465.015C465.015 55.3403 465.063 53.7538 465.159 52.417L463.164 52.2745ZM463.015 57.1797C463.015 60.9744 463.236 65.7749 463.677 71.5743L465.671 71.4228C465.233 65.6499 465.015 60.9045 465.015 57.1797H463.015ZM464.559 70.5052L446.578 72.5926L446.808 74.5793L464.789 72.4919L464.559 70.5052ZM447.683 73.4493C447.495 72.0799 447.374 70.4584 447.326 68.5798L445.327 68.6311C445.376 70.5612 445.501 72.26 445.702 73.7226L447.683 73.4493ZM447.326 68.567C447.253 66.6721 447.204 64.7155 447.18 62.6974L445.18 62.7215C445.205 64.7561 445.254 66.7303 445.327 68.6439L447.326 68.567ZM447.18 62.6854C447.131 60.646 447.045 58.786 446.921 57.1064L444.927 57.253C445.047 58.8937 445.132 60.7202 445.18 62.7336L447.18 62.6854ZM446.922 57.1218C446.822 55.3957 446.598 53.4568 446.252 51.3079L444.277 51.6257C444.615 53.7248 444.83 55.5945 444.926 57.2376L446.922 57.1218ZM446.264 51.4461L445.276 3.69219L443.276 3.73359L444.265 51.4875L446.264 51.4461ZM444.397 4.70554L459.412 2.87448L459.169 0.88919L444.155 2.72024L444.397 4.70554ZM458.294 1.96541L460.711 30.7862L462.704 30.6191L460.287 1.79827L458.294 1.96541ZM533.75 52.7485L534.52 52.1107L533.594 50.9928L532.88 52.2561L533.75 52.7485ZM542.576 63.4053L543.521 63.7316L543.704 63.2003L543.346 62.7674L542.576 63.4053ZM537.522 69.0449L536.982 68.2035L536.978 68.2058L537.522 69.0449ZM528.074 73.0732L527.816 72.107L527.808 72.1091L528.074 73.0732ZM508.518 73.293L508.196 74.2398L508.199 74.2407L508.518 73.293ZM502.695 69.4111L503.48 68.7918L503.478 68.7888L502.695 69.4111ZM501.121 47.1821L500.185 46.8296L500.183 46.8331L501.121 47.1821ZM505.369 39.7114L504.682 38.9847L504.68 38.9867L505.369 39.7114ZM511.155 35.5L510.683 34.6182L510.679 34.6205L511.155 35.5ZM533.42 33.6323L533.082 34.5734L533.092 34.5768L533.42 33.6323ZM540.781 37.917L541.548 38.5594L542.169 37.8176L541.448 37.172L540.781 37.917ZM520.676 61.9038L519.91 61.2614L518.533 62.9038H520.676V61.9038ZM525.73 60.8052L526.149 61.7132L526.155 61.7103L525.73 60.8052ZM530.161 57.6191L530.875 58.3199L530.881 58.3135L530.161 57.6191ZM523.606 44.2158L524.384 44.8443L525.159 43.8853L524.06 43.3251L523.606 44.2158ZM516.099 44.106L515.703 43.1877L515.696 43.1906L516.099 44.106ZM513.499 46.0103L514.289 46.6228L514.304 46.6036L514.318 46.5837L513.499 46.0103ZM512.363 58.1318L511.406 58.4223L511.955 60.2287L513.141 58.7603L512.363 58.1318ZM532.98 53.3864L541.806 64.0431L543.346 62.7674L534.52 52.1107L532.98 53.3864ZM541.63 63.0789C541.023 64.8395 539.537 66.5622 536.982 68.2035L538.062 69.8864C540.829 68.1097 542.713 66.0726 543.521 63.7316L541.63 63.0789ZM536.978 68.2058C534.446 69.8473 531.397 71.1521 527.816 72.107L528.331 74.0395C532.075 73.0412 535.325 71.6606 538.066 69.8841L536.978 68.2058ZM527.808 72.1091C524.254 73.0872 520.705 73.5747 517.161 73.5747V75.5747C520.891 75.5747 524.618 75.0613 528.339 74.0374L527.808 72.1091ZM517.161 73.5747C514.025 73.5747 511.255 73.1589 508.837 72.3452L508.199 74.2407C510.859 75.136 513.851 75.5747 517.161 75.5747V73.5747ZM508.84 72.3461C506.47 71.541 504.706 70.3452 503.48 68.7918L501.91 70.0304C503.419 71.9438 505.536 73.3359 508.196 74.2398L508.84 72.3461ZM503.478 68.7888C501.279 66.0234 500.143 62.449 500.143 57.9854H498.143C498.143 62.799 499.375 66.8418 501.913 70.0335L503.478 68.7888ZM500.143 57.9854C500.143 54.4461 500.78 50.9631 502.058 47.5311L500.183 46.8331C498.825 50.4813 498.143 54.2003 498.143 57.9854H500.143ZM502.056 47.5347C503.384 44.0107 504.735 41.6935 506.058 40.4361L504.68 38.9867C503.023 40.5614 501.543 43.2246 500.185 46.8296L502.056 47.5347ZM506.056 40.4382C507.777 38.8111 509.635 37.4594 511.631 36.3795L510.679 34.6205C508.524 35.7867 506.525 37.2426 504.682 38.9847L506.056 40.4382ZM511.626 36.3818C513.656 35.2964 515.752 34.4843 517.916 33.9433L517.431 32.003C515.103 32.585 512.853 33.4575 510.683 34.6182L511.626 36.3818ZM517.916 33.9433C520.081 33.402 522.306 33.1309 524.595 33.1309V31.1309C522.147 31.1309 519.758 31.4212 517.431 32.003L517.916 33.9433ZM524.595 33.1309C527.586 33.1309 530.413 33.6132 533.082 34.5733L533.759 32.6913C530.862 31.6495 527.805 31.1309 524.595 31.1309V33.1309ZM533.092 34.5768C535.782 35.5123 538.118 36.8751 540.114 38.662L541.448 37.172C539.245 35.1991 536.675 33.7054 533.749 32.6878L533.092 34.5768ZM540.015 37.2746L519.91 61.2614L521.443 62.5462L541.548 38.5594L540.015 37.2746ZM520.676 62.9038C522.6 62.9038 524.428 62.5074 526.149 61.7131L525.311 59.8972C523.858 60.5678 522.317 60.9038 520.676 60.9038V62.9038ZM526.155 61.7103C527.882 60.8993 529.455 59.7652 530.875 58.3198L529.448 56.9184C528.182 58.2074 526.801 59.1974 525.305 59.9L526.155 61.7103ZM530.881 58.3135C532.288 56.8554 533.533 55.1624 534.62 53.241L532.88 52.2561C531.867 54.0456 530.72 55.5997 529.442 56.9248L530.881 58.3135ZM524.06 43.3251C522.735 42.6487 521.359 42.3003 519.944 42.3003V44.3003C521.019 44.3003 522.085 44.5623 523.151 45.1066L524.06 43.3251ZM519.944 42.3003C518.485 42.3003 517.069 42.5983 515.703 43.1877L516.495 45.0242C517.618 44.5394 518.766 44.3003 519.944 44.3003V42.3003ZM515.696 43.1906C514.384 43.7677 513.336 44.4981 512.679 45.4368L514.318 46.5837C514.686 46.0576 515.371 45.5185 516.501 45.0213L515.696 43.1906ZM512.708 45.3977C511.067 47.5159 510.228 49.8775 510.228 52.4556H512.228C512.228 50.3462 512.903 48.4109 514.289 46.6228L512.708 45.3977ZM510.228 52.4556C510.228 53.377 510.32 54.2668 510.507 55.1229L512.461 54.6955C512.307 53.989 512.228 53.2431 512.228 52.4556H510.228ZM510.507 55.1229C510.687 55.9425 510.989 57.0461 511.406 58.4223L513.32 57.8414C512.908 56.4832 512.624 55.4383 512.461 54.6955L510.507 55.1229ZM513.141 58.7603L524.384 44.8443L522.828 43.5874L511.585 57.5034L513.141 58.7603ZM590.448 37.2944L590.994 38.1323L591.581 37.7498L591.422 37.0675L590.448 37.2944ZM577.521 45.7173L576.589 46.0791L577.035 47.2278L578.067 46.5551L577.521 45.7173ZM574.958 41.5425L574.213 42.2097L574.22 42.2179L574.227 42.2259L574.958 41.5425ZM567.633 43.5933L566.716 43.1961L566.715 43.1982L567.633 43.5933ZM566.718 71.4985L566.833 72.4919L567.788 72.381L567.715 71.4228L566.718 71.4985ZM548.737 73.5859L547.746 73.7238L547.881 74.692L548.852 74.5793L548.737 73.5859ZM547.309 49.3794L548.307 49.4364L548.309 49.3925L548.308 49.3486L547.309 49.3794ZM546.649 27.9927L546.526 27.0004L545.622 27.1131L545.65 28.0235L546.649 27.9927ZM561.042 26.1982L561.798 25.5446L561.449 25.1397L560.918 25.2059L561.042 26.1982ZM563.129 28.6152L562.372 29.2689L562.814 29.7804L563.453 29.5612L563.129 28.6152ZM567.853 27.1138L567.58 26.1516L567.576 26.1529L567.853 27.1138ZM582.025 27.4067L581.511 28.2642L581.524 28.2723L581.538 28.28L582.025 27.4067ZM587.519 31.4351L586.799 32.1295L586.805 32.1359L587.519 31.4351ZM589.902 36.4566L576.975 44.8794L578.067 46.5551L590.994 38.1323L589.902 36.4566ZM578.453 45.3555C577.778 43.6144 576.859 42.1101 575.688 40.8591L574.227 42.2259C575.205 43.2698 575.995 44.5486 576.589 46.0791L578.453 45.3555ZM575.702 40.8752C574.541 39.5793 573.205 38.7847 571.698 38.7847V40.7847C572.437 40.7847 573.274 41.1619 574.213 42.2097L575.702 40.8752ZM571.698 38.7847C569.451 38.7847 567.85 40.5739 566.716 43.1961L568.551 43.9904C569.614 41.5345 570.722 40.7847 571.698 40.7847V38.7847ZM566.715 43.1982C565.576 45.8455 565.059 50.3027 565.059 56.4106H567.059C567.059 50.3115 567.591 46.2238 568.552 43.9883L566.715 43.1982ZM565.059 56.4106C565.059 60.7155 565.28 65.7712 565.721 71.5743L567.715 71.4228C567.277 65.6536 567.059 60.6507 567.059 56.4106H565.059ZM566.602 70.5052L548.622 72.5926L548.852 74.5793L566.833 72.4919L566.602 70.5052ZM549.727 73.4481C548.682 65.9375 548.162 59.2589 548.162 53.4077H546.162C546.162 59.373 546.692 66.1465 547.746 73.7238L549.727 73.4481ZM548.162 53.4077C548.162 52.4592 548.21 51.1382 548.307 49.4364L546.31 49.3223C546.212 51.0385 546.162 52.4031 546.162 53.4077H548.162ZM548.308 49.3486L547.649 27.9619L545.65 28.0235L546.309 49.4102L548.308 49.3486ZM546.773 28.985L561.165 27.1906L560.918 25.2059L546.526 27.0004L546.773 28.985ZM560.285 26.8519L562.372 29.2689L563.886 27.9616L561.798 25.5446L560.285 26.8519ZM563.453 29.5612C565.15 28.9796 566.708 28.4843 568.13 28.0747L567.576 26.1529C566.117 26.5733 564.526 27.079 562.805 27.6693L563.453 29.5612ZM568.126 28.0759C569.568 27.6674 570.907 27.3449 572.143 27.107L571.766 25.143C570.464 25.3934 569.068 25.7301 567.58 26.1516L568.126 28.0759ZM572.143 27.107C573.356 26.8739 574.525 26.7588 575.653 26.7588V24.7588C574.389 24.7588 573.093 24.8878 571.766 25.143L572.143 27.107ZM575.653 26.7588C577.914 26.7588 579.855 27.2707 581.511 28.2642L582.54 26.5492C580.534 25.3455 578.227 24.7588 575.653 24.7588V26.7588ZM581.538 28.28C583.801 29.5426 585.545 30.8294 586.799 32.1294L588.238 30.7407C586.807 29.2575 584.888 27.8588 582.513 26.5334L581.538 28.28ZM586.805 32.1359C588.008 33.3605 588.917 35.1292 589.474 37.5214L591.422 37.0675C590.808 34.4303 589.763 32.2928 588.232 30.7342L586.805 32.1359Z" fill="#126FC1"/>
    </svg>
    